<svg xmlns="http://www.w3.org/2000/svg" viewBox="0 0 1920 1080" preserveAspectRatio="xMidYMid slice">
  <defs>
    
    <linearGradient id="beam-f0247a" x1="0%" y1="0%" x2="0%" y2="100%">
      <stop offset="0%" stop-color="#f0247a" stop-opacity="0.9"></stop>
      <stop offset="50%" stop-color="#f0247a" stop-opacity="0.35"></stop>
      <stop offset="100%" stop-color="#f0247a" stop-opacity="0"></stop>
    </linearGradient>
    <linearGradient id="beam-f47a2e" x1="0%" y1="0%" x2="0%" y2="100%">
      <stop offset="0%" stop-color="#f47a2e" stop-opacity="0.9"></stop>
      <stop offset="50%" stop-color="#f47a2e" stop-opacity="0.35"></stop>
      <stop offset="100%" stop-color="#f47a2e" stop-opacity="0"></stop>
    </linearGradient>
    <linearGradient id="beam-e6c54a" x1="0%" y1="0%" x2="0%" y2="100%">
      <stop offset="0%" stop-color="#e6c54a" stop-opacity="0.9"></stop>
      <stop offset="50%" stop-color="#e6c54a" stop-opacity="0.35"></stop>
      <stop offset="100%" stop-color="#e6c54a" stop-opacity="0"></stop>
    </linearGradient>
    <linearGradient id="beam-f4b6c8" x1="0%" y1="0%" x2="0%" y2="100%">
      <stop offset="0%" stop-color="#f4b6c8" stop-opacity="0.9"></stop>
      <stop offset="50%" stop-color="#f4b6c8" stop-opacity="0.35"></stop>
      <stop offset="100%" stop-color="#f4b6c8" stop-opacity="0"></stop>
    </linearGradient>
    <radialGradient id="halo" cx="50%" cy="38%" r="60%">
      <stop offset="0%" stop-color="#f0247a" stop-opacity="0.35"></stop>
      <stop offset="50%" stop-color="#f47a2e" stop-opacity="0.15"></stop>
      <stop offset="100%" stop-color="#1a0d3a" stop-opacity="0"></stop>
    </radialGradient>
    <linearGradient id="sky" x1="0%" y1="0%" x2="0%" y2="100%">
      <stop offset="0%" stop-color="#1a0d3a"></stop>
      <stop offset="55%" stop-color="#2e1a5c"></stop>
      <stop offset="100%" stop-color="#0a0418"></stop>
    </linearGradient>
    <filter id="grain">
      <feTurbulence type="fractalNoise" baseFrequency="0.9" numOctaves="2" seed="3"></feTurbulence>
      <feColorMatrix values="0 0 0 0 1   0 0 0 0 1   0 0 0 0 1   0 0 0 0.06 0"></feColorMatrix>
      <feComposite in2="SourceGraphic" operator="in"></feComposite>
    </filter>
  </defs>

  
  <rect width="1920" height="1080" fill="url(#sky)"></rect>
  
  <ellipse cx="960" cy="432" rx="1056" ry="486" fill="url(#halo)"></ellipse>

  
  <g transform="translate(485 133) rotate(208) scale(0.58)" opacity="0.13">
        <path d="M -10 -22 L 10 -22 L 10 -8 L 22 -8 L 22 8 L 10 8 L 10 22 L -10 22 L -10 8 L -22 8 L -22 -8 L -10 -8 Z" fill="#f0247a"></path>
      </g><g transform="translate(227 604) rotate(358) scale(1.08)" opacity="0.14">
        <rect x="-22" y="-6" width="34" height="12" fill="#e6c54a"></rect>
        <rect x="12" y="-3" width="10" height="6" fill="#e6c54a"></rect>
        <polygon points="22,0 38,2 38,-2" fill="#e6c54a"></polygon>
      </g><g transform="translate(1145 134) rotate(50) scale(1.16)" opacity="0.19">
        <path d="M -10 -22 L 10 -22 L 10 -8 L 22 -8 L 22 8 L 10 8 L 10 22 L -10 22 L -10 8 L -22 8 L -22 -8 L -10 -8 Z" fill="#f4b6c8"></path>
      </g><g transform="translate(347 410) rotate(93) scale(1.15)" opacity="0.18">
        <rect x="-22" y="-6" width="34" height="12" fill="#f0247a"></rect>
        <rect x="12" y="-3" width="10" height="6" fill="#f0247a"></rect>
        <polygon points="22,0 38,2 38,-2" fill="#f0247a"></polygon>
      </g><g transform="translate(896 116) rotate(8) scale(0.83)" opacity="0.18">
        <rect x="-22" y="-6" width="34" height="12" fill="#f4b6c8"></rect>
        <rect x="12" y="-3" width="10" height="6" fill="#f4b6c8"></rect>
        <polygon points="22,0 38,2 38,-2" fill="#f4b6c8"></polygon>
      </g><g transform="translate(731 431) rotate(251) scale(0.97)" opacity="0.17">
        <path d="M -10 -22 L 10 -22 L 10 -8 L 22 -8 L 22 8 L 10 8 L 10 22 L -10 22 L -10 8 L -22 8 L -22 -8 L -10 -8 Z" fill="#f4b6c8"></path>
      </g><g transform="translate(188 195) rotate(161) scale(0.50)" opacity="0.17">
        <rect x="-22" y="-6" width="34" height="12" fill="#e6c54a"></rect>
        <rect x="12" y="-3" width="10" height="6" fill="#e6c54a"></rect>
        <polygon points="22,0 38,2 38,-2" fill="#e6c54a"></polygon>
      </g><g transform="translate(748 209) rotate(98) scale(0.42)" opacity="0.11">
        <rect x="-22" y="-6" width="34" height="12" fill="#f47a2e"></rect>
        <rect x="12" y="-3" width="10" height="6" fill="#f47a2e"></rect>
        <polygon points="22,0 38,2 38,-2" fill="#f47a2e"></polygon>
      </g><g transform="translate(1835 196) rotate(314) scale(0.87)" opacity="0.12">
        <rect x="-30" y="-12" width="60" height="24" rx="12" fill="#f47a2e"></rect>
        <rect x="-30" y="-12" width="30" height="24" rx="12" fill="#fff" opacity="0.4"></rect>
      </g><g transform="translate(1882 142) rotate(332) scale(1.04)" opacity="0.13">
        <rect x="-30" y="-12" width="60" height="24" rx="12" fill="#e6c54a"></rect>
        <rect x="-30" y="-12" width="30" height="24" rx="12" fill="#fff" opacity="0.4"></rect>
      </g><g transform="translate(228 386) rotate(42) scale(0.59)" opacity="0.15">
        <path d="M -10 -22 L 10 -22 L 10 -8 L 22 -8 L 22 8 L 10 8 L 10 22 L -10 22 L -10 8 L -22 8 L -22 -8 L -10 -8 Z" fill="#e6c54a"></path>
      </g><g transform="translate(403 216) rotate(250) scale(1.11)" opacity="0.18">
        <rect x="-22" y="-6" width="34" height="12" fill="#e6c54a"></rect>
        <rect x="12" y="-3" width="10" height="6" fill="#e6c54a"></rect>
        <polygon points="22,0 38,2 38,-2" fill="#e6c54a"></polygon>
      </g><g transform="translate(771 172) rotate(45) scale(0.83)" opacity="0.16">
        <path d="M -10 -22 L 10 -22 L 10 -8 L 22 -8 L 22 8 L 10 8 L 10 22 L -10 22 L -10 8 L -22 8 L -22 -8 L -10 -8 Z" fill="#f4b6c8"></path>
      </g><g transform="translate(1434 338) rotate(16) scale(0.46)" opacity="0.18">
        <rect x="-22" y="-6" width="34" height="12" fill="#f4b6c8"></rect>
        <rect x="12" y="-3" width="10" height="6" fill="#f4b6c8"></rect>
        <polygon points="22,0 38,2 38,-2" fill="#f4b6c8"></polygon>
      </g><g transform="translate(324 312) rotate(102) scale(0.79)" opacity="0.18">
        <rect x="-30" y="-12" width="60" height="24" rx="12" fill="#f4b6c8"></rect>
        <rect x="-30" y="-12" width="30" height="24" rx="12" fill="#fff" opacity="0.4"></rect>
      </g><g transform="translate(607 398) rotate(95) scale(0.72)" opacity="0.08">
        <path d="M -10 -22 L 10 -22 L 10 -8 L 22 -8 L 22 8 L 10 8 L 10 22 L -10 22 L -10 8 L -22 8 L -22 -8 L -10 -8 Z" fill="#e6c54a"></path>
      </g><g transform="translate(911 233) rotate(214) scale(0.96)" opacity="0.15">
        <rect x="-30" y="-12" width="60" height="24" rx="12" fill="#e6c54a"></rect>
        <rect x="-30" y="-12" width="30" height="24" rx="12" fill="#fff" opacity="0.4"></rect>
      </g><g transform="translate(729 331) rotate(337) scale(0.59)" opacity="0.19">
        <path d="M -10 -22 L 10 -22 L 10 -8 L 22 -8 L 22 8 L 10 8 L 10 22 L -10 22 L -10 8 L -22 8 L -22 -8 L -10 -8 Z" fill="#f4b6c8"></path>
      </g><g transform="translate(1776 95) rotate(92) scale(0.83)" opacity="0.14">
        <rect x="-22" y="-6" width="34" height="12" fill="#f4b6c8"></rect>
        <rect x="12" y="-3" width="10" height="6" fill="#f4b6c8"></rect>
        <polygon points="22,0 38,2 38,-2" fill="#f4b6c8"></polygon>
      </g><g transform="translate(1359 570) rotate(111) scale(0.85)" opacity="0.16">
        <path d="M -10 -22 L 10 -22 L 10 -8 L 22 -8 L 22 8 L 10 8 L 10 22 L -10 22 L -10 8 L -22 8 L -22 -8 L -10 -8 Z" fill="#f0247a"></path>
      </g><g transform="translate(882 540) rotate(350) scale(0.43)" opacity="0.15">
        <path d="M -10 -22 L 10 -22 L 10 -8 L 22 -8 L 22 8 L 10 8 L 10 22 L -10 22 L -10 8 L -22 8 L -22 -8 L -10 -8 Z" fill="#f47a2e"></path>
      </g><g transform="translate(1282 361) rotate(92) scale(0.98)" opacity="0.14">
        <rect x="-22" y="-6" width="34" height="12" fill="#f0247a"></rect>
        <rect x="12" y="-3" width="10" height="6" fill="#f0247a"></rect>
        <polygon points="22,0 38,2 38,-2" fill="#f0247a"></polygon>
      </g>

  
  
      <path d="M 228 0 L 252 0 L 455.01954077627033 820 L 302.6907982031561 820 Z" fill="url(#beam-f0247a)" opacity="0.45"></path>
    
      <path d="M 508 0 L 532 0 L 724.6438660343746 820 L 601.6899297157512 820 Z" fill="url(#beam-f47a2e)" opacity="0.45"></path>
    
      <path d="M 888 0 L 912 0 L 1277.2086833690314 820 L 1118.5845288351607 820 Z" fill="url(#beam-e6c54a)" opacity="0.45"></path>
    
      <path d="M 1268 0 L 1292 0 L 1423.9975381372492 820 L 1281.2093279839514 820 Z" fill="url(#beam-f4b6c8)" opacity="0.45"></path>
    
      <path d="M 1588 0 L 1612 0 L 1394.493095468379 820 L 1271.0047306797944 820 Z" fill="url(#beam-f0247a)" opacity="0.45"></path>
    
      <path d="M 1808 0 L 1832 0 L 1939.4932900787085 820 L 1839.5312463118535 820 Z" fill="url(#beam-f47a2e)" opacity="0.45"></path>
    

  
  
      <line x1="380" y1="0" x2="380" y2="160" stroke="#1a0d3a" stroke-width="2"></line>
      <rect x="354" y="160" width="52" height="80" fill="#1a0d3a"></rect>
      <rect x="358" y="166" width="44" height="60" fill="#f47a2e" opacity="0.85"></rect>
      <path d="M 358 200 Q 380 230 402 200 L 402 226 L 358 226 Z" fill="#f0247a" opacity="0.7"></path>
      <rect x="377" y="240" width="6" height="40" fill="#1a0d3a"></rect>
      <circle cx="380" cy="290" r="6" fill="#f47a2e"></circle>
      
      <ellipse cx="380" cy="330" rx="3" ry="6" fill="#f0247a" opacity="0.7"></ellipse>
      <ellipse cx="380" cy="380" rx="2" ry="5" fill="#f0247a" opacity="0.5"></ellipse>
    
      <line x1="700" y1="0" x2="700" y2="160" stroke="#1a0d3a" stroke-width="2"></line>
      <rect x="674" y="160" width="52" height="80" fill="#1a0d3a"></rect>
      <rect x="678" y="166" width="44" height="60" fill="#f47a2e" opacity="0.85"></rect>
      <path d="M 678 200 Q 700 230 722 200 L 722 226 L 678 226 Z" fill="#f0247a" opacity="0.7"></path>
      <rect x="697" y="240" width="6" height="40" fill="#1a0d3a"></rect>
      <circle cx="700" cy="290" r="6" fill="#f47a2e"></circle>
      
      <ellipse cx="700" cy="330" rx="3" ry="6" fill="#f0247a" opacity="0.7"></ellipse>
      <ellipse cx="700" cy="380" rx="2" ry="5" fill="#f0247a" opacity="0.5"></ellipse>
    
      <line x1="1020" y1="0" x2="1020" y2="160" stroke="#1a0d3a" stroke-width="2"></line>
      <rect x="994" y="160" width="52" height="80" fill="#1a0d3a"></rect>
      <rect x="998" y="166" width="44" height="60" fill="#f47a2e" opacity="0.85"></rect>
      <path d="M 998 200 Q 1020 230 1042 200 L 1042 226 L 998 226 Z" fill="#f0247a" opacity="0.7"></path>
      <rect x="1017" y="240" width="6" height="40" fill="#1a0d3a"></rect>
      <circle cx="1020" cy="290" r="6" fill="#f47a2e"></circle>
      
      <ellipse cx="1020" cy="330" rx="3" ry="6" fill="#f0247a" opacity="0.7"></ellipse>
      <ellipse cx="1020" cy="380" rx="2" ry="5" fill="#f0247a" opacity="0.5"></ellipse>
    
      <line x1="1340" y1="0" x2="1340" y2="160" stroke="#1a0d3a" stroke-width="2"></line>
      <rect x="1314" y="160" width="52" height="80" fill="#1a0d3a"></rect>
      <rect x="1318" y="166" width="44" height="60" fill="#f47a2e" opacity="0.85"></rect>
      <path d="M 1318 200 Q 1340 230 1362 200 L 1362 226 L 1318 226 Z" fill="#f0247a" opacity="0.7"></path>
      <rect x="1337" y="240" width="6" height="40" fill="#1a0d3a"></rect>
      <circle cx="1340" cy="290" r="6" fill="#f47a2e"></circle>
      
      <ellipse cx="1340" cy="330" rx="3" ry="6" fill="#f0247a" opacity="0.7"></ellipse>
      <ellipse cx="1340" cy="380" rx="2" ry="5" fill="#f0247a" opacity="0.5"></ellipse>
    
      <line x1="1640" y1="0" x2="1640" y2="160" stroke="#1a0d3a" stroke-width="2"></line>
      <rect x="1614" y="160" width="52" height="80" fill="#1a0d3a"></rect>
      <rect x="1618" y="166" width="44" height="60" fill="#f47a2e" opacity="0.85"></rect>
      <path d="M 1618 200 Q 1640 230 1662 200 L 1662 226 L 1618 226 Z" fill="#f0247a" opacity="0.7"></path>
      <rect x="1637" y="240" width="6" height="40" fill="#1a0d3a"></rect>
      <circle cx="1640" cy="290" r="6" fill="#f47a2e"></circle>
      
      <ellipse cx="1640" cy="330" rx="3" ry="6" fill="#f0247a" opacity="0.7"></ellipse>
      <ellipse cx="1640" cy="380" rx="2" ry="5" fill="#f0247a" opacity="0.5"></ellipse>
    

  
  
    
    <rect x="0" y="780" width="1920" height="300" fill="#06030f"></rect>
    
    <rect x="0" y="780" width="1920" height="40" fill="#0a0418"></rect>
    
    <rect x="100" y="0" width="14" height="780" fill="#0a0418"></rect>
    <rect x="1806" y="0" width="14" height="780" fill="#0a0418"></rect>
    
    <rect x="100" y="40" width="1720" height="14" fill="#0a0418"></rect>
    
    <line x1="110" y1="46" x2="140" y2="60" stroke="#1a0d3a" stroke-width="2"></line><line x1="170.71428571428572" y1="46" x2="200.71428571428572" y2="60" stroke="#1a0d3a" stroke-width="2"></line><line x1="231.42857142857144" y1="46" x2="261.42857142857144" y2="60" stroke="#1a0d3a" stroke-width="2"></line><line x1="292.1428571428571" y1="46" x2="322.1428571428571" y2="60" stroke="#1a0d3a" stroke-width="2"></line><line x1="352.8571428571429" y1="46" x2="382.8571428571429" y2="60" stroke="#1a0d3a" stroke-width="2"></line><line x1="413.57142857142856" y1="46" x2="443.57142857142856" y2="60" stroke="#1a0d3a" stroke-width="2"></line><line x1="474.2857142857143" y1="46" x2="504.2857142857143" y2="60" stroke="#1a0d3a" stroke-width="2"></line><line x1="535" y1="46" x2="565" y2="60" stroke="#1a0d3a" stroke-width="2"></line><line x1="595.7142857142858" y1="46" x2="625.7142857142858" y2="60" stroke="#1a0d3a" stroke-width="2"></line><line x1="656.4285714285714" y1="46" x2="686.4285714285714" y2="60" stroke="#1a0d3a" stroke-width="2"></line><line x1="717.1428571428571" y1="46" x2="747.1428571428571" y2="60" stroke="#1a0d3a" stroke-width="2"></line><line x1="777.8571428571429" y1="46" x2="807.8571428571429" y2="60" stroke="#1a0d3a" stroke-width="2"></line><line x1="838.5714285714286" y1="46" x2="868.5714285714286" y2="60" stroke="#1a0d3a" stroke-width="2"></line><line x1="899.2857142857143" y1="46" x2="929.2857142857143" y2="60" stroke="#1a0d3a" stroke-width="2"></line><line x1="960" y1="46" x2="990" y2="60" stroke="#1a0d3a" stroke-width="2"></line><line x1="1020.7142857142858" y1="46" x2="1050.7142857142858" y2="60" stroke="#1a0d3a" stroke-width="2"></line><line x1="1081.4285714285716" y1="46" x2="1111.4285714285716" y2="60" stroke="#1a0d3a" stroke-width="2"></line><line x1="1142.142857142857" y1="46" x2="1172.142857142857" y2="60" stroke="#1a0d3a" stroke-width="2"></line><line x1="1202.857142857143" y1="46" x2="1232.857142857143" y2="60" stroke="#1a0d3a" stroke-width="2"></line><line x1="1263.5714285714287" y1="46" x2="1293.5714285714287" y2="60" stroke="#1a0d3a" stroke-width="2"></line><line x1="1324.2857142857142" y1="46" x2="1354.2857142857142" y2="60" stroke="#1a0d3a" stroke-width="2"></line><line x1="1385" y1="46" x2="1415" y2="60" stroke="#1a0d3a" stroke-width="2"></line><line x1="1445.7142857142858" y1="46" x2="1475.7142857142858" y2="60" stroke="#1a0d3a" stroke-width="2"></line><line x1="1506.4285714285716" y1="46" x2="1536.4285714285716" y2="60" stroke="#1a0d3a" stroke-width="2"></line><line x1="1567.142857142857" y1="46" x2="1597.142857142857" y2="60" stroke="#1a0d3a" stroke-width="2"></line><line x1="1627.857142857143" y1="46" x2="1657.857142857143" y2="60" stroke="#1a0d3a" stroke-width="2"></line><line x1="1688.5714285714287" y1="46" x2="1718.5714285714287" y2="60" stroke="#1a0d3a" stroke-width="2"></line><line x1="1749.2857142857142" y1="46" x2="1779.2857142857142" y2="60" stroke="#1a0d3a" stroke-width="2"></line>
  

  
  <ellipse cx="75" cy="742" rx="312" ry="78" fill="#fff" opacity="0.08"></ellipse><ellipse cx="298" cy="786" rx="184" ry="76" fill="#fff" opacity="0.10"></ellipse><ellipse cx="487" cy="751" rx="195" ry="70" fill="#fff" opacity="0.08"></ellipse><ellipse cx="776" cy="774" rx="316" ry="87" fill="#fff" opacity="0.10"></ellipse><ellipse cx="996" cy="796" rx="219" ry="97" fill="#fff" opacity="0.11"></ellipse><ellipse cx="1256" cy="792" rx="285" ry="84" fill="#fff" opacity="0.08"></ellipse><ellipse cx="1455" cy="759" rx="194" ry="74" fill="#fff" opacity="0.09"></ellipse><ellipse cx="1758" cy="792" rx="296" ry="72" fill="#fff" opacity="0.10"></ellipse>

  
  <circle cx="-8.1" cy="720.0" r="16.0" fill="#0a0418"></circle><path d="M -27.3 734.0 L 11.1 734.0 L 15.1 818.6 L -31.3 818.6 Z" fill="#1a0d3a"></path><circle cx="36.7" cy="720.0" r="19.2" fill="#0a0418"></circle><path d="M 13.7 737.2 L 59.6 737.2 L 63.6 807.8 L 9.7 807.8 Z" fill="#1a0d3a"></path><circle cx="55.8" cy="720.0" r="19.1" fill="#0a0418"></circle><path d="M 33.0 737.1 L 78.7 737.1 L 82.7 814.7 L 29.0 814.7 Z" fill="#1a0d3a"></path><circle cx="85.7" cy="720.0" r="20.4" fill="#0a0418"></circle><path d="M 61.2 738.4 L 110.2 738.4 L 114.2 809.8 L 57.2 809.8 Z" fill="#1a0d3a"></path><path d="M 102.1 728.0 L 110.1 728.0 L 114.1 628.9 L 106.1 628.9 Z" fill="#0a0418"></path><path d="M 106.1 628.9 l 0 -14 l 4 0 l 0 6 l 3 0 l 0 -2 l 3 0 l 0 12 Z" fill="#0a0418"></path><circle cx="116.0" cy="720.0" r="18.2" fill="#0a0418"></circle><path d="M 94.2 736.2 L 137.8 736.2 L 141.8 801.4 L 90.2 801.4 Z" fill="#0a0418"></path><circle cx="144.0" cy="720.0" r="17.4" fill="#0a0418"></circle><path d="M 123.2 735.4 L 164.8 735.4 L 168.8 800.9 L 119.2 800.9 Z" fill="#0a0418"></path><circle cx="172.2" cy="720.0" r="15.1" fill="#0a0418"></circle><path d="M 155.1 720.0 Q 172.2 696.9 189.3 720.0 Z" fill="#1a0d3a"></path><circle cx="160.9" cy="709.7" r="1.2" fill="#2a1463"></circle><circle cx="168.5" cy="706.8" r="1.2" fill="#2a1463"></circle><circle cx="176.0" cy="704.3" r="1.2" fill="#2a1463"></circle><circle cx="183.6" cy="704.9" r="1.2" fill="#2a1463"></circle><path d="M 154.1 733.1 L 190.4 733.1 L 194.4 817.7 L 150.1 817.7 Z" fill="#1a0d3a"></path><circle cx="204.5" cy="720.0" r="18.3" fill="#0a0418"></circle><path d="M 182.6 736.3 L 226.4 736.3 L 230.4 809.3 L 178.6 809.3 Z" fill="#1a0d3a"></path><circle cx="231.9" cy="720.0" r="17.1" fill="#0a0418"></circle><path d="M 212.8 720.0 Q 231.9 694.9 250.9 720.0 Z" fill="#1a0d3a"></path><circle cx="219.0" cy="703.3" r="1.2" fill="#2a1463"></circle><circle cx="227.6" cy="706.4" r="1.2" fill="#2a1463"></circle><circle cx="236.1" cy="708.0" r="1.2" fill="#2a1463"></circle><circle cx="244.7" cy="704.5" r="1.2" fill="#2a1463"></circle><path d="M 211.3 735.1 L 252.4 735.1 L 256.4 814.8 L 207.3 814.8 Z" fill="#1a0d3a"></path><circle cx="265.2" cy="720.0" r="19.2" fill="#0a0418"></circle><path d="M 242.2 737.2 L 288.2 737.2 L 292.2 801.4 L 238.2 801.4 Z" fill="#0a0418"></path><path d="M 280.3 728.0 L 288.3 728.0 L 296.0 649.0 L 288.0 649.0 Z" fill="#0a0418"></path><path d="M 288.0 649.0 l 0 -14 l 4 0 l 0 6 l 3 0 l 0 -2 l 3 0 l 0 12 Z" fill="#0a0418"></path><circle cx="292.7" cy="720.0" r="14.1" fill="#0a0418"></circle><path d="M 276.6 720.0 Q 292.7 697.9 308.8 720.0 Z" fill="#1a0d3a"></path><circle cx="282.2" cy="707.0" r="1.2" fill="#2a1463"></circle><circle cx="289.2" cy="705.9" r="1.2" fill="#2a1463"></circle><circle cx="296.2" cy="707.3" r="1.2" fill="#2a1463"></circle><circle cx="303.3" cy="707.4" r="1.2" fill="#2a1463"></circle><path d="M 275.8 732.1 L 309.6 732.1 L 313.6 814.8 L 271.8 814.8 Z" fill="#0a0418"></path><circle cx="312.6" cy="720.0" r="16.9" fill="#0a0418"></circle><path d="M 293.7 720.0 Q 312.6 695.1 331.4 720.0 Z" fill="#1a0d3a"></path><circle cx="299.9" cy="704.4" r="1.2" fill="#2a1463"></circle><circle cx="308.3" cy="704.6" r="1.2" fill="#2a1463"></circle><circle cx="316.8" cy="704.7" r="1.2" fill="#2a1463"></circle><circle cx="325.2" cy="704.6" r="1.2" fill="#2a1463"></circle><path d="M 292.3 734.9 L 332.8 734.9 L 336.8 800.7 L 288.3 800.7 Z" fill="#0a0418"></path><path d="M 291.7 728.0 L 299.7 728.0 L 298.6 656.6 L 290.6 656.6 Z" fill="#0a0418"></path><path d="M 290.6 656.6 l 0 -14 l 4 0 l 0 6 l 3 0 l 0 -2 l 3 0 l 0 12 Z" fill="#0a0418"></path><circle cx="357.8" cy="720.0" r="14.8" fill="#0a0418"></circle><path d="M 340.0 732.8 L 375.6 732.8 L 379.6 803.5 L 336.0 803.5 Z" fill="#1a0d3a"></path><circle cx="370.8" cy="720.0" r="16.0" fill="#0a0418"></circle><path d="M 351.6 734.0 L 390.0 734.0 L 394.0 802.6 L 347.6 802.6 Z" fill="#1a0d3a"></path><circle cx="406.1" cy="720.0" r="17.7" fill="#0a0418"></circle><path d="M 386.4 720.0 Q 406.1 694.3 425.8 720.0 Z" fill="#1a0d3a"></path><circle cx="392.8" cy="702.5" r="1.2" fill="#2a1463"></circle><circle cx="401.7" cy="705.2" r="1.2" fill="#2a1463"></circle><circle cx="410.5" cy="706.4" r="1.2" fill="#2a1463"></circle><circle cx="419.4" cy="707.8" r="1.2" fill="#2a1463"></circle><path d="M 384.8 735.7 L 427.4 735.7 L 431.4 817.6 L 380.8 817.6 Z" fill="#0a0418"></path><rect x="425.4" y="640.0" width="14" height="6" fill="#1a0d3a"></rect><rect x="439.4" y="642.0" width="10" height="2" fill="#1a0d3a"></rect><circle cx="440.3" cy="720.0" r="15.3" fill="#0a0418"></circle><path d="M 421.9 733.3 L 458.7 733.3 L 462.7 818.7 L 417.9 818.7 Z" fill="#1a0d3a"></path><circle cx="459.6" cy="720.0" r="16.0" fill="#0a0418"></circle><path d="M 440.4 734.0 L 478.8 734.0 L 482.8 812.6 L 436.4 812.6 Z" fill="#0a0418"></path><circle cx="497.9" cy="720.0" r="17.6" fill="#0a0418"></circle><path d="M 476.7 735.6 L 519.1 735.6 L 523.1 807.8 L 472.7 807.8 Z" fill="#1a0d3a"></path><circle cx="532.3" cy="720.0" r="15.3" fill="#0a0418"></circle><path d="M 514.0 733.3 L 550.6 733.3 L 554.6 817.6 L 510.0 817.6 Z" fill="#0a0418"></path><path d="M 543.6 728.0 L 551.6 728.0 L 545.4 642.8 L 537.4 642.8 Z" fill="#0a0418"></path><path d="M 537.4 642.8 l 0 -14 l 4 0 l 0 6 l 3 0 l 0 -2 l 3 0 l 0 12 Z" fill="#0a0418"></path><circle cx="552.2" cy="720.0" r="15.8" fill="#0a0418"></circle><path d="M 533.2 733.8 L 571.1 733.8 L 575.1 817.2 L 529.2 817.2 Z" fill="#1a0d3a"></path><circle cx="578.9" cy="720.0" r="16.2" fill="#0a0418"></circle><path d="M 559.4 734.2 L 598.4 734.2 L 602.4 817.1 L 555.4 817.1 Z" fill="#1a0d3a"></path><circle cx="614.9" cy="720.0" r="14.9" fill="#0a0418"></circle><path d="M 597.0 732.9 L 632.8 732.9 L 636.8 804.2 L 593.0 804.2 Z" fill="#0a0418"></path><path d="M 625.8 728.0 L 633.8 728.0 L 626.6 645.5 L 618.6 645.5 Z" fill="#0a0418"></path><path d="M 618.6 645.5 l 0 -14 l 4 0 l 0 6 l 3 0 l 0 -2 l 3 0 l 0 12 Z" fill="#0a0418"></path><circle cx="647.4" cy="720.0" r="14.8" fill="#0a0418"></circle><path d="M 629.6 732.8 L 665.2 732.8 L 669.2 803.8 L 625.6 803.8 Z" fill="#1a0d3a"></path><path d="M 658.2 728.0 L 666.2 728.0 L 679.1 650.5 L 671.1 650.5 Z" fill="#0a0418"></path><path d="M 671.1 650.5 l 0 -14 l 4 0 l 0 6 l 3 0 l 0 -2 l 3 0 l 0 12 Z" fill="#0a0418"></path><circle cx="660.3" cy="720.0" r="16.3" fill="#0a0418"></circle><path d="M 640.7 734.3 L 679.9 734.3 L 683.9 815.9 L 636.7 815.9 Z" fill="#0a0418"></path><circle cx="691.2" cy="720.0" r="19.6" fill="#0a0418"></circle><path d="M 667.6 737.6 L 714.7 737.6 L 718.7 803.8 L 663.6 803.8 Z" fill="#0a0418"></path><circle cx="722.0" cy="720.0" r="18.6" fill="#0a0418"></circle><path d="M 699.7 736.6 L 744.4 736.6 L 748.4 816.9 L 695.7 816.9 Z" fill="#1a0d3a"></path><path d="M 736.7 728.0 L 744.7 728.0 L 749.3 631.8 L 741.3 631.8 Z" fill="#0a0418"></path><path d="M 741.3 631.8 l 0 -14 l 4 0 l 0 6 l 3 0 l 0 -2 l 3 0 l 0 12 Z" fill="#0a0418"></path><circle cx="764.7" cy="720.0" r="18.4" fill="#0a0418"></circle><path d="M 742.6 736.4 L 786.9 736.4 L 790.9 816.2 L 738.6 816.2 Z" fill="#1a0d3a"></path><circle cx="785.2" cy="720.0" r="21.6" fill="#0a0418"></circle><path d="M 761.6 720.0 Q 785.2 690.4 808.9 720.0 Z" fill="#1a0d3a"></path><circle cx="769.0" cy="700.5" r="1.2" fill="#2a1463"></circle><circle cx="779.8" cy="700.6" r="1.2" fill="#2a1463"></circle><circle cx="790.6" cy="705.0" r="1.2" fill="#2a1463"></circle><circle cx="801.5" cy="704.0" r="1.2" fill="#2a1463"></circle><path d="M 759.3 739.6 L 811.2 739.6 L 815.2 813.9 L 755.3 813.9 Z" fill="#1a0d3a"></path><circle cx="821.9" cy="720.0" r="17.6" fill="#0a0418"></circle><path d="M 800.8 735.6 L 843.0 735.6 L 847.0 806.1 L 796.8 806.1 Z" fill="#0a0418"></path><circle cx="840.0" cy="720.0" r="16.8" fill="#0a0418"></circle><path d="M 819.8 734.8 L 860.2 734.8 L 864.2 815.9 L 815.8 815.9 Z" fill="#0a0418"></path><path d="M 819.1 728.0 L 827.1 728.0 L 833.4 635.8 L 825.4 635.8 Z" fill="#0a0418"></path><path d="M 825.4 635.8 l 0 -14 l 4 0 l 0 6 l 3 0 l 0 -2 l 3 0 l 0 12 Z" fill="#0a0418"></path><circle cx="874.8" cy="720.0" r="21.5" fill="#0a0418"></circle><path d="M 849.0 739.5 L 900.6 739.5 L 904.6 816.2 L 845.0 816.2 Z" fill="#0a0418"></path><path d="M 892.3 728.0 L 900.3 728.0 L 912.9 632.1 L 904.9 632.1 Z" fill="#0a0418"></path><path d="M 904.9 632.1 l 0 -14 l 4 0 l 0 6 l 3 0 l 0 -2 l 3 0 l 0 12 Z" fill="#0a0418"></path><rect x="898.6" y="640.0" width="14" height="6" fill="#1a0d3a"></rect><rect x="912.6" y="642.0" width="10" height="2" fill="#1a0d3a"></rect><circle cx="904.4" cy="720.0" r="15.3" fill="#0a0418"></circle><path d="M 887.1 720.0 Q 904.4 696.7 921.7 720.0 Z" fill="#1a0d3a"></path><circle cx="892.9" cy="705.4" r="1.2" fill="#2a1463"></circle><circle cx="900.6" cy="709.4" r="1.2" fill="#2a1463"></circle><circle cx="908.2" cy="704.8" r="1.2" fill="#2a1463"></circle><circle cx="915.9" cy="706.3" r="1.2" fill="#2a1463"></circle><path d="M 886.0 733.3 L 922.8 733.3 L 926.8 817.5 L 882.0 817.5 Z" fill="#0a0418"></path><circle cx="937.4" cy="720.0" r="16.7" fill="#0a0418"></circle><path d="M 917.4 734.7 L 957.4 734.7 L 961.4 817.0 L 913.4 817.0 Z" fill="#0a0418"></path><circle cx="966.0" cy="720.0" r="14.9" fill="#0a0418"></circle><path d="M 948.2 732.9 L 983.9 732.9 L 987.9 816.4 L 944.2 816.4 Z" fill="#1a0d3a"></path><circle cx="987.1" cy="720.0" r="18.8" fill="#0a0418"></circle><path d="M 964.5 736.8 L 1009.7 736.8 L 1013.7 803.8 L 960.5 803.8 Z" fill="#1a0d3a"></path><circle cx="1015.4" cy="720.0" r="21.2" fill="#0a0418"></circle><path d="M 992.3 720.0 Q 1015.4 690.8 1038.6 720.0 Z" fill="#1a0d3a"></path><circle cx="999.6" cy="701.9" r="1.2" fill="#2a1463"></circle><circle cx="1010.1" cy="701.9" r="1.2" fill="#2a1463"></circle><circle cx="1020.7" cy="702.6" r="1.2" fill="#2a1463"></circle><circle cx="1031.3" cy="702.0" r="1.2" fill="#2a1463"></circle><path d="M 990.0 739.2 L 1040.8 739.2 L 1044.8 818.7 L 986.0 818.7 Z" fill="#0a0418"></path><circle cx="1049.8" cy="720.0" r="17.4" fill="#0a0418"></circle><path d="M 1028.9 735.4 L 1070.7 735.4 L 1074.7 802.3 L 1024.9 802.3 Z" fill="#0a0418"></path><circle cx="1069.3" cy="720.0" r="20.4" fill="#0a0418"></circle><path d="M 1044.9 738.4 L 1093.8 738.4 L 1097.8 813.2 L 1040.9 813.2 Z" fill="#0a0418"></path><circle cx="1102.0" cy="720.0" r="15.8" fill="#0a0418"></circle><path d="M 1083.0 733.8 L 1120.9 733.8 L 1124.9 801.1 L 1079.0 801.1 Z" fill="#1a0d3a"></path><path d="M 1082.1 728.0 L 1090.1 728.0 L 1087.4 639.5 L 1079.4 639.5 Z" fill="#0a0418"></path><path d="M 1079.4 639.5 l 0 -14 l 4 0 l 0 6 l 3 0 l 0 -2 l 3 0 l 0 12 Z" fill="#0a0418"></path><circle cx="1129.4" cy="720.0" r="14.7" fill="#0a0418"></circle><path d="M 1111.7 732.7 L 1147.0 732.7 L 1151.0 803.8 L 1107.7 803.8 Z" fill="#1a0d3a"></path><circle cx="1171.4" cy="720.0" r="14.9" fill="#0a0418"></circle><path d="M 1153.5 732.9 L 1189.2 732.9 L 1193.2 816.6 L 1149.5 816.6 Z" fill="#0a0418"></path><path d="M 1152.5 728.0 L 1160.5 728.0 L 1166.2 636.8 L 1158.2 636.8 Z" fill="#0a0418"></path><path d="M 1158.2 636.8 l 0 -14 l 4 0 l 0 6 l 3 0 l 0 -2 l 3 0 l 0 12 Z" fill="#0a0418"></path><circle cx="1187.0" cy="720.0" r="17.1" fill="#0a0418"></circle><path d="M 1166.4 735.1 L 1207.5 735.1 L 1211.5 805.6 L 1162.4 805.6 Z" fill="#1a0d3a"></path><circle cx="1220.3" cy="720.0" r="15.1" fill="#0a0418"></circle><path d="M 1202.1 733.1 L 1238.5 733.1 L 1242.5 813.4 L 1198.1 813.4 Z" fill="#0a0418"></path><path d="M 1231.5 728.0 L 1239.5 728.0 L 1224.9 620.7 L 1216.9 620.7 Z" fill="#0a0418"></path><path d="M 1216.9 620.7 l 0 -14 l 4 0 l 0 6 l 3 0 l 0 -2 l 3 0 l 0 12 Z" fill="#0a0418"></path><circle cx="1259.0" cy="720.0" r="17.9" fill="#0a0418"></circle><path d="M 1237.5 735.9 L 1280.4 735.9 L 1284.4 817.2 L 1233.5 817.2 Z" fill="#1a0d3a"></path><path d="M 1237.1 728.0 L 1245.1 728.0 L 1254.5 623.8 L 1246.5 623.8 Z" fill="#0a0418"></path><path d="M 1246.5 623.8 l 0 -14 l 4 0 l 0 6 l 3 0 l 0 -2 l 3 0 l 0 12 Z" fill="#0a0418"></path><circle cx="1283.3" cy="720.0" r="19.5" fill="#0a0418"></circle><path d="M 1259.9 737.5 L 1306.7 737.5 L 1310.7 818.6 L 1255.9 818.6 Z" fill="#1a0d3a"></path><circle cx="1316.9" cy="720.0" r="21.5" fill="#0a0418"></circle><path d="M 1291.1 739.5 L 1342.7 739.5 L 1346.7 806.3 L 1287.1 806.3 Z" fill="#0a0418"></path><circle cx="1337.7" cy="720.0" r="17.8" fill="#0a0418"></circle><path d="M 1316.3 735.8 L 1359.0 735.8 L 1363.0 805.0 L 1312.3 805.0 Z" fill="#1a0d3a"></path><path d="M 1315.8 728.0 L 1323.8 728.0 L 1338.0 653.3 L 1330.0 653.3 Z" fill="#0a0418"></path><path d="M 1330.0 653.3 l 0 -14 l 4 0 l 0 6 l 3 0 l 0 -2 l 3 0 l 0 12 Z" fill="#0a0418"></path><circle cx="1366.4" cy="720.0" r="15.4" fill="#0a0418"></circle><path d="M 1347.9 733.4 L 1384.9 733.4 L 1388.9 806.3 L 1343.9 806.3 Z" fill="#1a0d3a"></path><circle cx="1400.2" cy="720.0" r="20.4" fill="#0a0418"></circle><path d="M 1375.8 738.4 L 1424.7 738.4 L 1428.7 819.2 L 1371.8 819.2 Z" fill="#1a0d3a"></path><circle cx="1416.6" cy="720.0" r="14.2" fill="#0a0418"></circle><path d="M 1399.6 732.2 L 1433.7 732.2 L 1437.7 804.8 L 1395.6 804.8 Z" fill="#0a0418"></path><circle cx="1462.5" cy="720.0" r="21.2" fill="#0a0418"></circle><path d="M 1437.1 739.2 L 1488.0 739.2 L 1492.0 812.5 L 1433.1 812.5 Z" fill="#1a0d3a"></path><circle cx="1482.1" cy="720.0" r="18.6" fill="#0a0418"></circle><path d="M 1459.8 736.6 L 1504.3 736.6 L 1508.3 807.6 L 1455.8 807.6 Z" fill="#0a0418"></path><path d="M 1459.5 728.0 L 1467.5 728.0 L 1464.8 656.2 L 1456.8 656.2 Z" fill="#0a0418"></path><path d="M 1456.8 656.2 l 0 -14 l 4 0 l 0 6 l 3 0 l 0 -2 l 3 0 l 0 12 Z" fill="#0a0418"></path><circle cx="1515.9" cy="720.0" r="17.2" fill="#0a0418"></circle><path d="M 1495.3 735.2 L 1536.6 735.2 L 1540.6 804.0 L 1491.3 804.0 Z" fill="#1a0d3a"></path><circle cx="1537.6" cy="720.0" r="15.9" fill="#0a0418"></circle><path d="M 1518.5 733.9 L 1556.6 733.9 L 1560.6 810.3 L 1514.5 810.3 Z" fill="#0a0418"></path><circle cx="1569.9" cy="720.0" r="15.9" fill="#0a0418"></circle><path d="M 1550.8 733.9 L 1588.9 733.9 L 1592.9 814.4 L 1546.8 814.4 Z" fill="#0a0418"></path><circle cx="1608.7" cy="720.0" r="20.3" fill="#0a0418"></circle><path d="M 1584.3 738.3 L 1633.0 738.3 L 1637.0 804.9 L 1580.3 804.9 Z" fill="#0a0418"></path><circle cx="1623.8" cy="720.0" r="19.6" fill="#0a0418"></circle><path d="M 1600.3 737.6 L 1647.3 737.6 L 1651.3 806.0 L 1596.3 806.0 Z" fill="#0a0418"></path><circle cx="1653.7" cy="720.0" r="19.5" fill="#0a0418"></circle><path d="M 1630.3 737.5 L 1677.1 737.5 L 1681.1 815.9 L 1626.3 815.9 Z" fill="#0a0418"></path><path d="M 1630.2 728.0 L 1638.2 728.0 L 1652.0 630.0 L 1644.0 630.0 Z" fill="#0a0418"></path><path d="M 1644.0 630.0 l 0 -14 l 4 0 l 0 6 l 3 0 l 0 -2 l 3 0 l 0 12 Z" fill="#0a0418"></path><circle cx="1686.6" cy="720.0" r="15.3" fill="#0a0418"></circle><path d="M 1668.2 733.3 L 1705.0 733.3 L 1709.0 802.1 L 1664.2 802.1 Z" fill="#1a0d3a"></path><circle cx="1721.1" cy="720.0" r="20.7" fill="#0a0418"></circle><path d="M 1696.3 738.7 L 1745.9 738.7 L 1749.9 810.1 L 1692.3 810.1 Z" fill="#1a0d3a"></path><path d="M 1737.8 728.0 L 1745.8 728.0 L 1746.5 637.1 L 1738.5 637.1 Z" fill="#0a0418"></path><path d="M 1738.5 637.1 l 0 -14 l 4 0 l 0 6 l 3 0 l 0 -2 l 3 0 l 0 12 Z" fill="#0a0418"></path><circle cx="1744.8" cy="720.0" r="19.0" fill="#0a0418"></circle><path d="M 1722.0 737.0 L 1767.5 737.0 L 1771.5 814.0 L 1718.0 814.0 Z" fill="#1a0d3a"></path><circle cx="1774.7" cy="720.0" r="21.1" fill="#0a0418"></circle><path d="M 1749.4 739.1 L 1800.1 739.1 L 1804.1 801.0 L 1745.4 801.0 Z" fill="#1a0d3a"></path><circle cx="1807.3" cy="720.0" r="21.6" fill="#0a0418"></circle><path d="M 1781.4 739.6 L 1833.1 739.6 L 1837.1 816.7 L 1777.4 816.7 Z" fill="#0a0418"></path><circle cx="1830.4" cy="720.0" r="17.9" fill="#0a0418"></circle><path d="M 1810.4 720.0 Q 1830.4 694.1 1850.3 720.0 Z" fill="#1a0d3a"></path><circle cx="1816.9" cy="707.3" r="1.2" fill="#2a1463"></circle><circle cx="1825.9" cy="704.3" r="1.2" fill="#2a1463"></circle><circle cx="1834.8" cy="704.6" r="1.2" fill="#2a1463"></circle><circle cx="1843.8" cy="705.8" r="1.2" fill="#2a1463"></circle><path d="M 1808.9 735.9 L 1851.9 735.9 L 1855.9 800.9 L 1804.9 800.9 Z" fill="#1a0d3a"></path><path d="M 1844.3 728.0 L 1852.3 728.0 L 1845.3 640.2 L 1837.3 640.2 Z" fill="#0a0418"></path><path d="M 1837.3 640.2 l 0 -14 l 4 0 l 0 6 l 3 0 l 0 -2 l 3 0 l 0 12 Z" fill="#0a0418"></path><circle cx="1858.3" cy="720.0" r="21.8" fill="#0a0418"></circle><path d="M 1832.1 739.8 L 1884.5 739.8 L 1888.5 802.5 L 1828.1 802.5 Z" fill="#0a0418"></path><path d="M 1832.5 728.0 L 1840.5 728.0 L 1833.6 622.5 L 1825.6 622.5 Z" fill="#0a0418"></path><path d="M 1825.6 622.5 l 0 -14 l 4 0 l 0 6 l 3 0 l 0 -2 l 3 0 l 0 12 Z" fill="#0a0418"></path><rect x="1882.5" y="640.0" width="14" height="6" fill="#1a0d3a"></rect><rect x="1896.5" y="642.0" width="10" height="2" fill="#1a0d3a"></rect><circle cx="1884.2" cy="720.0" r="14.4" fill="#0a0418"></circle><path d="M 1866.9 732.4 L 1901.4 732.4 L 1905.4 801.9 L 1862.9 801.9 Z" fill="#1a0d3a"></path><circle cx="-7.3" cy="760.0" r="19.8" fill="#0a0418"></circle><path d="M -31.0 777.8 L 16.4 777.8 L 20.4 848.0 L -35.0 848.0 Z" fill="#1a0d3a"></path><path d="M 8.5 768.0 L 16.5 768.0 L 22.7 690.9 L 14.7 690.9 Z" fill="#0a0418"></path><path d="M 14.7 690.9 l 0 -14 l 4 0 l 0 6 l 3 0 l 0 -2 l 3 0 l 0 12 Z" fill="#0a0418"></path><circle cx="25.5" cy="760.0" r="14.6" fill="#0a0418"></circle><path d="M 8.9 760.0 Q 25.5 737.4 42.0 760.0 Z" fill="#1a0d3a"></path><circle cx="14.5" cy="745.4" r="1.2" fill="#2a1463"></circle><circle cx="21.8" cy="749.1" r="1.2" fill="#2a1463"></circle><circle cx="29.1" cy="746.1" r="1.2" fill="#2a1463"></circle><circle cx="36.4" cy="747.7" r="1.2" fill="#2a1463"></circle><path d="M 7.9 772.6 L 43.0 772.6 L 47.0 840.4 L 3.9 840.4 Z" fill="#1a0d3a"></path><circle cx="54.7" cy="760.0" r="14.0" fill="#0a0418"></circle><path d="M 37.8 772.0 L 71.5 772.0 L 75.5 855.3 L 33.8 855.3 Z" fill="#0a0418"></path><circle cx="87.8" cy="760.0" r="17.4" fill="#0a0418"></circle><path d="M 66.9 775.4 L 108.6 775.4 L 112.6 847.7 L 62.9 847.7 Z" fill="#0a0418"></path><rect x="106.6" y="680.0" width="14" height="6" fill="#1a0d3a"></rect><rect x="120.6" y="682.0" width="10" height="2" fill="#1a0d3a"></rect><circle cx="123.3" cy="760.0" r="19.6" fill="#0a0418"></circle><path d="M 99.8 777.6 L 146.8 777.6 L 150.8 844.6 L 95.8 844.6 Z" fill="#0a0418"></path><circle cx="155.3" cy="760.0" r="16.8" fill="#0a0418"></circle><path d="M 135.1 774.8 L 175.4 774.8 L 179.4 845.1 L 131.1 845.1 Z" fill="#1a0d3a"></path><circle cx="188.5" cy="760.0" r="17.2" fill="#0a0418"></circle><path d="M 167.9 775.2 L 209.1 775.2 L 213.1 852.8 L 163.9 852.8 Z" fill="#1a0d3a"></path><path d="M 201.7 768.0 L 209.7 768.0 L 215.0 693.6 L 207.0 693.6 Z" fill="#0a0418"></path><path d="M 207.0 693.6 l 0 -14 l 4 0 l 0 6 l 3 0 l 0 -2 l 3 0 l 0 12 Z" fill="#0a0418"></path><circle cx="209.6" cy="760.0" r="20.8" fill="#0a0418"></circle><path d="M 184.6 778.8 L 234.5 778.8 L 238.5 843.2 L 180.6 843.2 Z" fill="#1a0d3a"></path><path d="M 184.8 768.0 L 192.8 768.0 L 193.2 677.0 L 185.2 677.0 Z" fill="#0a0418"></path><path d="M 185.2 677.0 l 0 -14 l 4 0 l 0 6 l 3 0 l 0 -2 l 3 0 l 0 12 Z" fill="#0a0418"></path><circle cx="251.0" cy="760.0" r="20.6" fill="#0a0418"></circle><path d="M 226.3 778.6 L 275.8 778.6 L 279.8 845.2 L 222.3 845.2 Z" fill="#0a0418"></path><path d="M 267.6 768.0 L 275.6 768.0 L 283.7 660.8 L 275.7 660.8 Z" fill="#0a0418"></path><path d="M 275.7 660.8 l 0 -14 l 4 0 l 0 6 l 3 0 l 0 -2 l 3 0 l 0 12 Z" fill="#0a0418"></path><circle cx="281.6" cy="760.0" r="18.9" fill="#0a0418"></circle><path d="M 259.0 776.9 L 304.2 776.9 L 308.2 859.3 L 255.0 859.3 Z" fill="#0a0418"></path><circle cx="305.6" cy="760.0" r="20.1" fill="#0a0418"></circle><path d="M 281.5 778.1 L 329.8 778.1 L 333.8 859.6 L 277.5 859.6 Z" fill="#1a0d3a"></path><path d="M 321.8 768.0 L 329.8 768.0 L 335.2 677.0 L 327.2 677.0 Z" fill="#0a0418"></path><path d="M 327.2 677.0 l 0 -14 l 4 0 l 0 6 l 3 0 l 0 -2 l 3 0 l 0 12 Z" fill="#0a0418"></path><circle cx="349.6" cy="760.0" r="15.1" fill="#0a0418"></circle><path d="M 332.5 760.0 Q 349.6 736.9 366.8 760.0 Z" fill="#1a0d3a"></path><circle cx="338.3" cy="745.5" r="1.2" fill="#2a1463"></circle><circle cx="345.8" cy="746.1" r="1.2" fill="#2a1463"></circle><circle cx="353.4" cy="745.8" r="1.2" fill="#2a1463"></circle><circle cx="361.0" cy="744.0" r="1.2" fill="#2a1463"></circle><path d="M 331.4 773.1 L 367.8 773.1 L 371.8 853.5 L 327.4 853.5 Z" fill="#1a0d3a"></path><path d="M 330.5 768.0 L 338.5 768.0 L 324.8 670.2 L 316.8 670.2 Z" fill="#0a0418"></path><path d="M 316.8 670.2 l 0 -14 l 4 0 l 0 6 l 3 0 l 0 -2 l 3 0 l 0 12 Z" fill="#0a0418"></path><circle cx="373.0" cy="760.0" r="18.0" fill="#0a0418"></circle><path d="M 351.4 776.0 L 394.7 776.0 L 398.7 858.3 L 347.4 858.3 Z" fill="#0a0418"></path><circle cx="396.1" cy="760.0" r="21.8" fill="#0a0418"></circle><path d="M 369.9 779.8 L 422.3 779.8 L 426.3 859.0 L 365.9 859.0 Z" fill="#0a0418"></path><path d="M 370.3 768.0 L 378.3 768.0 L 370.8 680.6 L 362.8 680.6 Z" fill="#0a0418"></path><path d="M 362.8 680.6 l 0 -14 l 4 0 l 0 6 l 3 0 l 0 -2 l 3 0 l 0 12 Z" fill="#0a0418"></path><circle cx="437.1" cy="760.0" r="19.7" fill="#0a0418"></circle><path d="M 413.5 777.7 L 460.8 777.7 L 464.8 847.6 L 409.5 847.6 Z" fill="#1a0d3a"></path><circle cx="460.9" cy="760.0" r="20.6" fill="#0a0418"></circle><path d="M 436.2 778.6 L 485.7 778.6 L 489.7 848.2 L 432.2 848.2 Z" fill="#1a0d3a"></path><circle cx="500.1" cy="760.0" r="19.4" fill="#0a0418"></circle><path d="M 476.9 777.4 L 523.4 777.4 L 527.4 843.6 L 472.9 843.6 Z" fill="#0a0418"></path><path d="M 476.8 768.0 L 484.8 768.0 L 498.7 678.5 L 490.7 678.5 Z" fill="#0a0418"></path><path d="M 490.7 678.5 l 0 -14 l 4 0 l 0 6 l 3 0 l 0 -2 l 3 0 l 0 12 Z" fill="#0a0418"></path><circle cx="526.7" cy="760.0" r="21.6" fill="#0a0418"></circle><path d="M 500.7 779.6 L 552.6 779.6 L 556.6 846.3 L 496.7 846.3 Z" fill="#0a0418"></path><circle cx="557.1" cy="760.0" r="14.9" fill="#0a0418"></circle><path d="M 539.3 772.9 L 575.0 772.9 L 579.0 853.8 L 535.3 853.8 Z" fill="#0a0418"></path><circle cx="587.9" cy="760.0" r="18.3" fill="#0a0418"></circle><path d="M 567.7 760.0 Q 587.9 733.7 608.2 760.0 Z" fill="#1a0d3a"></path><circle cx="574.2" cy="744.1" r="1.2" fill="#2a1463"></circle><circle cx="583.4" cy="742.9" r="1.2" fill="#2a1463"></circle><circle cx="592.5" cy="747.6" r="1.2" fill="#2a1463"></circle><circle cx="601.6" cy="745.9" r="1.2" fill="#2a1463"></circle><path d="M 566.0 776.3 L 609.8 776.3 L 613.8 843.3 L 562.0 843.3 Z" fill="#0a0418"></path><circle cx="622.6" cy="760.0" r="14.8" fill="#0a0418"></circle><path d="M 604.8 772.8 L 640.4 772.8 L 644.4 854.7 L 600.8 854.7 Z" fill="#1a0d3a"></path><circle cx="650.7" cy="760.0" r="14.3" fill="#0a0418"></circle><path d="M 633.5 772.3 L 667.9 772.3 L 671.9 851.1 L 629.5 851.1 Z" fill="#1a0d3a"></path><circle cx="680.4" cy="760.0" r="20.0" fill="#0a0418"></circle><path d="M 656.4 778.0 L 704.3 778.0 L 708.3 843.6 L 652.4 843.6 Z" fill="#0a0418"></path><path d="M 696.3 768.0 L 704.3 768.0 L 706.1 697.0 L 698.1 697.0 Z" fill="#0a0418"></path><path d="M 698.1 697.0 l 0 -14 l 4 0 l 0 6 l 3 0 l 0 -2 l 3 0 l 0 12 Z" fill="#0a0418"></path><circle cx="709.3" cy="760.0" r="15.3" fill="#0a0418"></circle><path d="M 690.9 773.3 L 727.7 773.3 L 731.7 842.4 L 686.9 842.4 Z" fill="#1a0d3a"></path><circle cx="738.8" cy="760.0" r="19.5" fill="#0a0418"></circle><path d="M 715.4 777.5 L 762.2 777.5 L 766.2 849.6 L 711.4 849.6 Z" fill="#0a0418"></path><circle cx="780.5" cy="760.0" r="18.0" fill="#0a0418"></circle><path d="M 758.9 776.0 L 802.1 776.0 L 806.1 847.1 L 754.9 847.1 Z" fill="#1a0d3a"></path><circle cx="808.0" cy="760.0" r="21.9" fill="#0a0418"></circle><path d="M 781.7 779.9 L 834.2 779.9 L 838.2 855.8 L 777.7 855.8 Z" fill="#1a0d3a"></path><path d="M 782.1 768.0 L 790.1 768.0 L 801.3 661.3 L 793.3 661.3 Z" fill="#0a0418"></path><path d="M 793.3 661.3 l 0 -14 l 4 0 l 0 6 l 3 0 l 0 -2 l 3 0 l 0 12 Z" fill="#0a0418"></path><circle cx="837.2" cy="760.0" r="15.0" fill="#0a0418"></circle><path d="M 819.2 773.0 L 855.2 773.0 L 859.2 840.6 L 815.2 840.6 Z" fill="#1a0d3a"></path><path d="M 818.2 768.0 L 826.2 768.0 L 821.0 694.3 L 813.0 694.3 Z" fill="#0a0418"></path><path d="M 813.0 694.3 l 0 -14 l 4 0 l 0 6 l 3 0 l 0 -2 l 3 0 l 0 12 Z" fill="#0a0418"></path><circle cx="862.7" cy="760.0" r="14.7" fill="#0a0418"></circle><path d="M 845.1 772.7 L 880.4 772.7 L 884.4 841.7 L 841.1 841.7 Z" fill="#0a0418"></path><path d="M 844.0 768.0 L 852.0 768.0 L 852.8 695.3 L 844.8 695.3 Z" fill="#0a0418"></path><path d="M 844.8 695.3 l 0 -14 l 4 0 l 0 6 l 3 0 l 0 -2 l 3 0 l 0 12 Z" fill="#0a0418"></path><circle cx="896.6" cy="760.0" r="15.6" fill="#0a0418"></circle><path d="M 877.9 773.6 L 915.4 773.6 L 919.4 840.6 L 873.9 840.6 Z" fill="#1a0d3a"></path><path d="M 908.3 768.0 L 916.3 768.0 L 922.4 698.7 L 914.4 698.7 Z" fill="#0a0418"></path><path d="M 914.4 698.7 l 0 -14 l 4 0 l 0 6 l 3 0 l 0 -2 l 3 0 l 0 12 Z" fill="#0a0418"></path><circle cx="929.8" cy="760.0" r="16.0" fill="#0a0418"></circle><path d="M 910.6 774.0 L 949.0 774.0 L 953.0 842.2 L 906.6 842.2 Z" fill="#1a0d3a"></path><circle cx="956.3" cy="760.0" r="17.6" fill="#0a0418"></circle><path d="M 935.2 775.6 L 977.4 775.6 L 981.4 856.7 L 931.2 856.7 Z" fill="#1a0d3a"></path><circle cx="998.1" cy="760.0" r="21.2" fill="#0a0418"></circle><path d="M 974.9 760.0 Q 998.1 730.8 1021.3 760.0 Z" fill="#1a0d3a"></path><circle cx="982.2" cy="743.9" r="1.2" fill="#2a1463"></circle><circle cx="992.8" cy="740.0" r="1.2" fill="#2a1463"></circle><circle cx="1003.4" cy="740.8" r="1.2" fill="#2a1463"></circle><circle cx="1014.0" cy="741.8" r="1.2" fill="#2a1463"></circle><path d="M 972.7 779.2 L 1023.5 779.2 L 1027.5 852.7 L 968.7 852.7 Z" fill="#0a0418"></path><circle cx="1016.1" cy="760.0" r="14.2" fill="#0a0418"></circle><path d="M 999.1 772.2 L 1033.2 772.2 L 1037.2 857.0 L 995.1 857.0 Z" fill="#0a0418"></path><circle cx="1052.1" cy="760.0" r="17.1" fill="#0a0418"></circle><path d="M 1031.6 775.1 L 1072.5 775.1 L 1076.5 843.4 L 1027.6 843.4 Z" fill="#0a0418"></path><circle cx="1075.3" cy="760.0" r="20.4" fill="#0a0418"></circle><path d="M 1050.8 778.4 L 1099.8 778.4 L 1103.8 849.7 L 1046.8 849.7 Z" fill="#0a0418"></path><circle cx="1106.0" cy="760.0" r="16.9" fill="#0a0418"></circle><path d="M 1085.7 774.9 L 1126.4 774.9 L 1130.4 853.8 L 1081.7 853.8 Z" fill="#0a0418"></path><path d="M 1119.0 768.0 L 1127.0 768.0 L 1137.4 663.0 L 1129.4 663.0 Z" fill="#0a0418"></path><path d="M 1129.4 663.0 l 0 -14 l 4 0 l 0 6 l 3 0 l 0 -2 l 3 0 l 0 12 Z" fill="#0a0418"></path><circle cx="1154.4" cy="760.0" r="19.2" fill="#0a0418"></circle><path d="M 1131.4 777.2 L 1177.4 777.2 L 1181.4 854.4 L 1127.4 854.4 Z" fill="#1a0d3a"></path><circle cx="1181.0" cy="760.0" r="19.5" fill="#0a0418"></circle><path d="M 1157.6 777.5 L 1204.4 777.5 L 1208.4 841.4 L 1153.6 841.4 Z" fill="#1a0d3a"></path><path d="M 1157.5 768.0 L 1165.5 768.0 L 1170.9 662.2 L 1162.9 662.2 Z" fill="#0a0418"></path><path d="M 1162.9 662.2 l 0 -14 l 4 0 l 0 6 l 3 0 l 0 -2 l 3 0 l 0 12 Z" fill="#0a0418"></path><circle cx="1216.4" cy="760.0" r="16.5" fill="#0a0418"></circle><path d="M 1196.6 774.5 L 1236.2 774.5 L 1240.2 851.1 L 1192.6 851.1 Z" fill="#1a0d3a"></path><circle cx="1243.7" cy="760.0" r="17.6" fill="#0a0418"></circle><path d="M 1222.5 775.6 L 1264.9 775.6 L 1268.9 844.8 L 1218.5 844.8 Z" fill="#0a0418"></path><circle cx="1273.6" cy="760.0" r="19.6" fill="#0a0418"></circle><path d="M 1250.0 777.6 L 1297.1 777.6 L 1301.1 842.4 L 1246.0 842.4 Z" fill="#0a0418"></path><circle cx="1306.3" cy="760.0" r="19.8" fill="#0a0418"></circle><path d="M 1284.5 760.0 Q 1306.3 732.2 1328.1 760.0 Z" fill="#1a0d3a"></path><circle cx="1291.5" cy="743.9" r="1.2" fill="#2a1463"></circle><circle cx="1301.4" cy="745.5" r="1.2" fill="#2a1463"></circle><circle cx="1311.3" cy="741.5" r="1.2" fill="#2a1463"></circle><circle cx="1321.2" cy="743.4" r="1.2" fill="#2a1463"></circle><path d="M 1282.6 777.8 L 1330.1 777.8 L 1334.1 854.1 L 1278.6 854.1 Z" fill="#0a0418"></path><rect x="1328.1" y="680.0" width="14" height="6" fill="#1a0d3a"></rect><rect x="1342.1" y="682.0" width="10" height="2" fill="#1a0d3a"></rect><circle cx="1324.8" cy="760.0" r="19.5" fill="#0a0418"></circle><path d="M 1301.4 777.5 L 1348.2 777.5 L 1352.2 857.9 L 1297.4 857.9 Z" fill="#1a0d3a"></path><path d="M 1301.3 768.0 L 1309.3 768.0 L 1295.1 671.2 L 1287.1 671.2 Z" fill="#0a0418"></path><path d="M 1287.1 671.2 l 0 -14 l 4 0 l 0 6 l 3 0 l 0 -2 l 3 0 l 0 12 Z" fill="#0a0418"></path><circle cx="1358.0" cy="760.0" r="19.5" fill="#0a0418"></circle><path d="M 1334.5 777.5 L 1381.4 777.5 L 1385.4 850.7 L 1330.5 850.7 Z" fill="#1a0d3a"></path><circle cx="1402.3" cy="760.0" r="16.4" fill="#0a0418"></circle><path d="M 1382.6 774.4 L 1422.1 774.4 L 1426.1 851.0 L 1378.6 851.0 Z" fill="#1a0d3a"></path><circle cx="1429.3" cy="760.0" r="16.4" fill="#0a0418"></circle><path d="M 1409.6 774.4 L 1448.9 774.4 L 1452.9 854.5 L 1405.6 854.5 Z" fill="#0a0418"></path><circle cx="1457.1" cy="760.0" r="17.6" fill="#0a0418"></circle><path d="M 1435.9 775.6 L 1478.2 775.6 L 1482.2 858.0 L 1431.9 858.0 Z" fill="#0a0418"></path><path d="M 1435.5 768.0 L 1443.5 768.0 L 1436.1 698.1 L 1428.1 698.1 Z" fill="#0a0418"></path><path d="M 1428.1 698.1 l 0 -14 l 4 0 l 0 6 l 3 0 l 0 -2 l 3 0 l 0 12 Z" fill="#0a0418"></path><circle cx="1490.2" cy="760.0" r="21.5" fill="#0a0418"></circle><path d="M 1464.4 779.5 L 1516.1 779.5 L 1520.1 851.7 L 1460.4 851.7 Z" fill="#0a0418"></path><rect x="1514.1" y="680.0" width="14" height="6" fill="#1a0d3a"></rect><rect x="1528.1" y="682.0" width="10" height="2" fill="#1a0d3a"></rect><circle cx="1524.0" cy="760.0" r="17.5" fill="#0a0418"></circle><path d="M 1504.5 760.0 Q 1524.0 734.5 1543.5 760.0 Z" fill="#1a0d3a"></path><circle cx="1510.9" cy="747.0" r="1.2" fill="#2a1463"></circle><circle cx="1519.6" cy="745.1" r="1.2" fill="#2a1463"></circle><circle cx="1528.3" cy="745.1" r="1.2" fill="#2a1463"></circle><circle cx="1537.1" cy="747.5" r="1.2" fill="#2a1463"></circle><path d="M 1503.0 775.5 L 1545.0 775.5 L 1549.0 852.6 L 1499.0 852.6 Z" fill="#1a0d3a"></path><circle cx="1541.8" cy="760.0" r="15.7" fill="#0a0418"></circle><path d="M 1522.9 773.7 L 1560.7 773.7 L 1564.7 841.3 L 1518.9 841.3 Z" fill="#1a0d3a"></path><circle cx="1575.6" cy="760.0" r="19.7" fill="#0a0418"></circle><path d="M 1551.9 777.7 L 1599.3 777.7 L 1603.3 855.1 L 1547.9 855.1 Z" fill="#0a0418"></path><path d="M 1591.3 768.0 L 1599.3 768.0 L 1611.9 686.1 L 1603.9 686.1 Z" fill="#0a0418"></path><path d="M 1603.9 686.1 l 0 -14 l 4 0 l 0 6 l 3 0 l 0 -2 l 3 0 l 0 12 Z" fill="#0a0418"></path><circle cx="1615.0" cy="760.0" r="16.5" fill="#0a0418"></circle><path d="M 1595.3 774.5 L 1634.8 774.5 L 1638.8 848.6 L 1591.3 848.6 Z" fill="#1a0d3a"></path><circle cx="1648.9" cy="760.0" r="21.0" fill="#0a0418"></circle><path d="M 1623.7 779.0 L 1674.1 779.0 L 1678.1 846.0 L 1619.7 846.0 Z" fill="#1a0d3a"></path><path d="M 1623.9 768.0 L 1631.9 768.0 L 1623.5 694.4 L 1615.5 694.4 Z" fill="#0a0418"></path><path d="M 1615.5 694.4 l 0 -14 l 4 0 l 0 6 l 3 0 l 0 -2 l 3 0 l 0 12 Z" fill="#0a0418"></path><circle cx="1670.7" cy="760.0" r="16.8" fill="#0a0418"></circle><path d="M 1650.5 774.8 L 1690.8 774.8 L 1694.8 843.9 L 1646.5 843.9 Z" fill="#1a0d3a"></path><circle cx="1706.6" cy="760.0" r="19.1" fill="#0a0418"></circle><path d="M 1683.7 777.1 L 1729.5 777.1 L 1733.5 859.2 L 1679.7 859.2 Z" fill="#1a0d3a"></path><circle cx="1740.1" cy="760.0" r="21.2" fill="#0a0418"></circle><path d="M 1714.6 779.2 L 1765.6 779.2 L 1769.6 852.1 L 1710.6 852.1 Z" fill="#1a0d3a"></path><circle cx="1770.6" cy="760.0" r="19.7" fill="#0a0418"></circle><path d="M 1746.9 777.7 L 1794.2 777.7 L 1798.2 853.7 L 1742.9 853.7 Z" fill="#1a0d3a"></path><circle cx="1790.7" cy="760.0" r="14.7" fill="#0a0418"></circle><path d="M 1773.1 772.7 L 1808.3 772.7 L 1812.3 856.3 L 1769.1 856.3 Z" fill="#1a0d3a"></path><path d="M 1801.4 768.0 L 1809.4 768.0 L 1805.3 661.3 L 1797.3 661.3 Z" fill="#0a0418"></path><path d="M 1797.3 661.3 l 0 -14 l 4 0 l 0 6 l 3 0 l 0 -2 l 3 0 l 0 12 Z" fill="#0a0418"></path><circle cx="1821.4" cy="760.0" r="18.9" fill="#0a0418"></circle><path d="M 1798.6 776.9 L 1844.1 776.9 L 1848.1 846.1 L 1794.6 846.1 Z" fill="#1a0d3a"></path><circle cx="1864.1" cy="760.0" r="15.5" fill="#0a0418"></circle><path d="M 1845.5 773.5 L 1882.7 773.5 L 1886.7 845.1 L 1841.5 845.1 Z" fill="#0a0418"></path><circle cx="1884.2" cy="760.0" r="20.3" fill="#0a0418"></circle><path d="M 1859.8 778.3 L 1908.6 778.3 L 1912.6 840.1 L 1855.8 840.1 Z" fill="#1a0d3a"></path><circle cx="-2.7" cy="800.0" r="20.3" fill="#0a0418"></circle><path d="M -25.0 800.0 Q -2.7 771.7 19.7 800.0 Z" fill="#1a0d3a"></path><circle cx="-17.9" cy="780.6" r="1.2" fill="#2a1463"></circle><circle cx="-7.7" cy="782.6" r="1.2" fill="#2a1463"></circle><circle cx="2.4" cy="786.1" r="1.2" fill="#2a1463"></circle><circle cx="12.6" cy="783.2" r="1.2" fill="#2a1463"></circle><path d="M -27.1 818.3 L 21.8 818.3 L 25.8 895.4 L -31.1 895.4 Z" fill="#0a0418"></path><circle cx="39.5" cy="800.0" r="15.4" fill="#0a0418"></circle><path d="M 20.9 813.4 L 58.0 813.4 L 62.0 890.4 L 16.9 890.4 Z" fill="#1a0d3a"></path><circle cx="65.5" cy="800.0" r="19.8" fill="#0a0418"></circle><path d="M 41.7 817.8 L 89.4 817.8 L 93.4 899.9 L 37.7 899.9 Z" fill="#0a0418"></path><circle cx="106.3" cy="800.0" r="17.3" fill="#0a0418"></circle><path d="M 85.5 815.3 L 127.1 815.3 L 131.1 886.2 L 81.5 886.2 Z" fill="#0a0418"></path><circle cx="127.2" cy="800.0" r="16.9" fill="#0a0418"></circle><path d="M 106.8 814.9 L 147.5 814.9 L 151.5 896.3 L 102.8 896.3 Z" fill="#0a0418"></path><circle cx="165.4" cy="800.0" r="16.9" fill="#0a0418"></circle><path d="M 145.1 814.9 L 185.6 814.9 L 189.6 897.7 L 141.1 897.7 Z" fill="#0a0418"></path><circle cx="194.4" cy="800.0" r="17.5" fill="#0a0418"></circle><path d="M 173.4 815.5 L 215.4 815.5 L 219.4 892.4 L 169.4 892.4 Z" fill="#1a0d3a"></path><path d="M 207.9 808.0 L 215.9 808.0 L 217.2 736.9 L 209.2 736.9 Z" fill="#0a0418"></path><path d="M 209.2 736.9 l 0 -14 l 4 0 l 0 6 l 3 0 l 0 -2 l 3 0 l 0 12 Z" fill="#0a0418"></path><circle cx="238.7" cy="800.0" r="17.8" fill="#0a0418"></circle><path d="M 217.3 815.8 L 260.1 815.8 L 264.1 895.0 L 213.3 895.0 Z" fill="#1a0d3a"></path><circle cx="264.1" cy="800.0" r="21.6" fill="#0a0418"></circle><path d="M 238.1 819.6 L 290.0 819.6 L 294.0 893.3 L 234.1 893.3 Z" fill="#0a0418"></path><circle cx="301.6" cy="800.0" r="19.0" fill="#0a0418"></circle><path d="M 280.6 800.0 Q 301.6 773.0 322.7 800.0 Z" fill="#1a0d3a"></path><circle cx="287.4" cy="782.7" r="1.2" fill="#2a1463"></circle><circle cx="296.9" cy="785.3" r="1.2" fill="#2a1463"></circle><circle cx="306.4" cy="786.4" r="1.2" fill="#2a1463"></circle><circle cx="315.9" cy="783.2" r="1.2" fill="#2a1463"></circle><path d="M 278.8 817.0 L 324.5 817.0 L 328.5 896.1 L 274.8 896.1 Z" fill="#1a0d3a"></path><rect x="322.5" y="720.0" width="14" height="6" fill="#1a0d3a"></rect><rect x="336.5" y="722.0" width="10" height="2" fill="#1a0d3a"></rect><circle cx="332.0" cy="800.0" r="16.2" fill="#0a0418"></circle><path d="M 312.6 814.2 L 351.4 814.2 L 355.4 886.9 L 308.6 886.9 Z" fill="#0a0418"></path><path d="M 311.9 808.0 L 319.9 808.0 L 329.0 732.5 L 321.0 732.5 Z" fill="#0a0418"></path><path d="M 321.0 732.5 l 0 -14 l 4 0 l 0 6 l 3 0 l 0 -2 l 3 0 l 0 12 Z" fill="#0a0418"></path><circle cx="356.6" cy="800.0" r="14.6" fill="#0a0418"></circle><path d="M 339.2 812.6 L 374.1 812.6 L 378.1 891.5 L 335.2 891.5 Z" fill="#0a0418"></path><circle cx="394.4" cy="800.0" r="21.0" fill="#0a0418"></circle><path d="M 369.2 819.0 L 419.7 819.0 L 423.7 888.4 L 365.2 888.4 Z" fill="#0a0418"></path><path d="M 369.4 808.0 L 377.4 808.0 L 368.6 710.4 L 360.6 710.4 Z" fill="#0a0418"></path><path d="M 360.6 710.4 l 0 -14 l 4 0 l 0 6 l 3 0 l 0 -2 l 3 0 l 0 12 Z" fill="#0a0418"></path><circle cx="434.4" cy="800.0" r="18.1" fill="#0a0418"></circle><path d="M 412.7 816.1 L 456.0 816.1 L 460.0 882.1 L 408.7 882.1 Z" fill="#0a0418"></path><circle cx="454.5" cy="800.0" r="19.5" fill="#0a0418"></circle><path d="M 431.1 817.5 L 477.9 817.5 L 481.9 891.3 L 427.1 891.3 Z" fill="#0a0418"></path><circle cx="503.7" cy="800.0" r="14.7" fill="#0a0418"></circle><path d="M 487.0 800.0 Q 503.7 777.3 520.4 800.0 Z" fill="#1a0d3a"></path><circle cx="492.7" cy="785.5" r="1.2" fill="#2a1463"></circle><circle cx="500.0" cy="786.8" r="1.2" fill="#2a1463"></circle><circle cx="507.4" cy="787.2" r="1.2" fill="#2a1463"></circle><circle cx="514.7" cy="789.1" r="1.2" fill="#2a1463"></circle><path d="M 486.1 812.7 L 521.4 812.7 L 525.4 899.4 L 482.1 899.4 Z" fill="#0a0418"></path><path d="M 485.0 808.0 L 493.0 808.0 L 498.2 708.7 L 490.2 708.7 Z" fill="#0a0418"></path><path d="M 490.2 708.7 l 0 -14 l 4 0 l 0 6 l 3 0 l 0 -2 l 3 0 l 0 12 Z" fill="#0a0418"></path><circle cx="526.8" cy="800.0" r="17.5" fill="#0a0418"></circle><path d="M 505.8 815.5 L 547.8 815.5 L 551.8 882.5 L 501.8 882.5 Z" fill="#0a0418"></path><circle cx="557.5" cy="800.0" r="18.9" fill="#0a0418"></circle><path d="M 534.8 816.9 L 580.2 816.9 L 584.2 899.6 L 530.8 899.6 Z" fill="#0a0418"></path><circle cx="591.3" cy="800.0" r="15.5" fill="#0a0418"></circle><path d="M 572.8 813.5 L 609.9 813.5 L 613.9 899.3 L 568.8 899.3 Z" fill="#0a0418"></path><path d="M 571.9 808.0 L 579.9 808.0 L 579.9 709.8 L 571.9 709.8 Z" fill="#0a0418"></path><path d="M 571.9 709.8 l 0 -14 l 4 0 l 0 6 l 3 0 l 0 -2 l 3 0 l 0 12 Z" fill="#0a0418"></path><circle cx="636.9" cy="800.0" r="16.1" fill="#0a0418"></circle><path d="M 617.7 814.1 L 656.2 814.1 L 660.2 894.0 L 613.7 894.0 Z" fill="#1a0d3a"></path><circle cx="654.2" cy="800.0" r="19.7" fill="#0a0418"></circle><path d="M 630.5 817.7 L 677.9 817.7 L 681.9 898.8 L 626.5 898.8 Z" fill="#1a0d3a"></path><circle cx="693.4" cy="800.0" r="17.6" fill="#0a0418"></circle><path d="M 673.8 800.0 Q 693.4 774.4 713.0 800.0 Z" fill="#1a0d3a"></path><circle cx="680.2" cy="787.9" r="1.2" fill="#2a1463"></circle><circle cx="689.0" cy="786.0" r="1.2" fill="#2a1463"></circle><circle cx="697.8" cy="787.5" r="1.2" fill="#2a1463"></circle><circle cx="706.6" cy="784.4" r="1.2" fill="#2a1463"></circle><path d="M 672.3 815.6 L 714.5 815.6 L 718.5 885.2 L 668.3 885.2 Z" fill="#0a0418"></path><circle cx="731.0" cy="800.0" r="20.7" fill="#0a0418"></circle><path d="M 706.2 818.7 L 755.8 818.7 L 759.8 899.1 L 702.2 899.1 Z" fill="#0a0418"></path><circle cx="754.6" cy="800.0" r="20.2" fill="#0a0418"></circle><path d="M 730.4 818.2 L 778.8 818.2 L 782.8 892.6 L 726.4 892.6 Z" fill="#1a0d3a"></path><circle cx="788.3" cy="800.0" r="15.0" fill="#0a0418"></circle><path d="M 770.3 813.0 L 806.3 813.0 L 810.3 884.7 L 766.3 884.7 Z" fill="#1a0d3a"></path><circle cx="826.2" cy="800.0" r="14.9" fill="#0a0418"></circle><path d="M 808.3 812.9 L 844.1 812.9 L 848.1 892.8 L 804.3 892.8 Z" fill="#1a0d3a"></path><circle cx="862.6" cy="800.0" r="17.6" fill="#0a0418"></circle><path d="M 841.5 815.6 L 883.8 815.6 L 887.8 882.6 L 837.5 882.6 Z" fill="#1a0d3a"></path><circle cx="899.9" cy="800.0" r="19.4" fill="#0a0418"></circle><path d="M 876.7 817.4 L 923.1 817.4 L 927.1 897.5 L 872.7 897.5 Z" fill="#1a0d3a"></path><circle cx="918.4" cy="800.0" r="19.1" fill="#0a0418"></circle><path d="M 895.5 817.1 L 941.3 817.1 L 945.3 889.3 L 891.5 889.3 Z" fill="#1a0d3a"></path><rect x="939.3" y="720.0" width="14" height="6" fill="#1a0d3a"></rect><rect x="953.3" y="722.0" width="10" height="2" fill="#1a0d3a"></rect><circle cx="965.2" cy="800.0" r="19.8" fill="#0a0418"></circle><path d="M 941.5 817.8 L 989.0 817.8 L 993.0 887.5 L 937.5 887.5 Z" fill="#0a0418"></path><circle cx="992.7" cy="800.0" r="15.9" fill="#0a0418"></circle><path d="M 973.7 813.9 L 1011.8 813.9 L 1015.8 890.1 L 969.7 890.1 Z" fill="#0a0418"></path><circle cx="1018.6" cy="800.0" r="21.5" fill="#0a0418"></circle><path d="M 992.8 819.5 L 1044.4 819.5 L 1048.4 899.2 L 988.8 899.2 Z" fill="#1a0d3a"></path><path d="M 1036.1 808.0 L 1044.1 808.0 L 1031.8 712.2 L 1023.8 712.2 Z" fill="#0a0418"></path><path d="M 1023.8 712.2 l 0 -14 l 4 0 l 0 6 l 3 0 l 0 -2 l 3 0 l 0 12 Z" fill="#0a0418"></path><circle cx="1066.4" cy="800.0" r="19.0" fill="#0a0418"></circle><path d="M 1043.5 817.0 L 1089.3 817.0 L 1093.3 889.0 L 1039.5 889.0 Z" fill="#1a0d3a"></path><rect x="1087.3" y="720.0" width="14" height="6" fill="#1a0d3a"></rect><rect x="1101.3" y="722.0" width="10" height="2" fill="#1a0d3a"></rect><circle cx="1086.1" cy="800.0" r="16.9" fill="#0a0418"></circle><path d="M 1065.8 814.9 L 1106.4 814.9 L 1110.4 890.5 L 1061.8 890.5 Z" fill="#0a0418"></path><circle cx="1130.8" cy="800.0" r="18.4" fill="#0a0418"></circle><path d="M 1108.7 816.4 L 1152.9 816.4 L 1156.9 892.7 L 1104.7 892.7 Z" fill="#0a0418"></path><circle cx="1152.6" cy="800.0" r="16.3" fill="#0a0418"></circle><path d="M 1133.1 814.3 L 1172.2 814.3 L 1176.2 891.6 L 1129.1 891.6 Z" fill="#1a0d3a"></path><circle cx="1196.6" cy="800.0" r="20.1" fill="#0a0418"></circle><path d="M 1172.5 818.1 L 1220.7 818.1 L 1224.7 885.4 L 1168.5 885.4 Z" fill="#0a0418"></path><circle cx="1231.3" cy="800.0" r="19.7" fill="#0a0418"></circle><path d="M 1207.6 817.7 L 1255.0 817.7 L 1259.0 890.3 L 1203.6 890.3 Z" fill="#0a0418"></path><circle cx="1255.3" cy="800.0" r="18.0" fill="#0a0418"></circle><path d="M 1235.3 800.0 Q 1255.3 774.0 1275.4 800.0 Z" fill="#1a0d3a"></path><circle cx="1241.8" cy="786.0" r="1.2" fill="#2a1463"></circle><circle cx="1250.8" cy="784.2" r="1.2" fill="#2a1463"></circle><circle cx="1259.8" cy="785.3" r="1.2" fill="#2a1463"></circle><circle cx="1268.8" cy="783.6" r="1.2" fill="#2a1463"></circle><path d="M 1233.7 816.0 L 1277.0 816.0 L 1281.0 885.9 L 1229.7 885.9 Z" fill="#0a0418"></path><path d="M 1233.3 808.0 L 1241.3 808.0 L 1237.5 720.9 L 1229.5 720.9 Z" fill="#0a0418"></path><path d="M 1229.5 720.9 l 0 -14 l 4 0 l 0 6 l 3 0 l 0 -2 l 3 0 l 0 12 Z" fill="#0a0418"></path><circle cx="1290.6" cy="800.0" r="19.4" fill="#0a0418"></circle><path d="M 1267.4 817.4 L 1313.8 817.4 L 1317.8 886.0 L 1263.4 886.0 Z" fill="#0a0418"></path><circle cx="1318.5" cy="800.0" r="17.5" fill="#0a0418"></circle><path d="M 1297.5 815.5 L 1339.5 815.5 L 1343.5 889.3 L 1293.5 889.3 Z" fill="#0a0418"></path><rect x="1337.5" y="720.0" width="14" height="6" fill="#1a0d3a"></rect><rect x="1351.5" y="722.0" width="10" height="2" fill="#1a0d3a"></rect><circle cx="1365.3" cy="800.0" r="14.8" fill="#0a0418"></circle><path d="M 1347.6 812.8 L 1383.1 812.8 L 1387.1 895.1 L 1343.6 895.1 Z" fill="#1a0d3a"></path><circle cx="1392.8" cy="800.0" r="17.1" fill="#0a0418"></circle><path d="M 1372.2 815.1 L 1413.3 815.1 L 1417.3 897.5 L 1368.2 897.5 Z" fill="#0a0418"></path><circle cx="1420.1" cy="800.0" r="18.3" fill="#0a0418"></circle><path d="M 1398.1 816.3 L 1442.0 816.3 L 1446.0 882.7 L 1394.1 882.7 Z" fill="#0a0418"></path><circle cx="1455.4" cy="800.0" r="17.4" fill="#0a0418"></circle><path d="M 1434.5 815.4 L 1476.3 815.4 L 1480.3 893.5 L 1430.5 893.5 Z" fill="#0a0418"></path><circle cx="1497.2" cy="800.0" r="15.5" fill="#0a0418"></circle><path d="M 1478.6 813.5 L 1515.8 813.5 L 1519.8 894.0 L 1474.6 894.0 Z" fill="#0a0418"></path><path d="M 1508.7 808.0 L 1516.7 808.0 L 1510.4 735.1 L 1502.4 735.1 Z" fill="#0a0418"></path><path d="M 1502.4 735.1 l 0 -14 l 4 0 l 0 6 l 3 0 l 0 -2 l 3 0 l 0 12 Z" fill="#0a0418"></path><circle cx="1522.5" cy="800.0" r="18.7" fill="#0a0418"></circle><path d="M 1500.0 816.7 L 1545.0 816.7 L 1549.0 896.2 L 1496.0 896.2 Z" fill="#1a0d3a"></path><path d="M 1499.7 808.0 L 1507.7 808.0 L 1501.2 704.2 L 1493.2 704.2 Z" fill="#0a0418"></path><path d="M 1493.2 704.2 l 0 -14 l 4 0 l 0 6 l 3 0 l 0 -2 l 3 0 l 0 12 Z" fill="#0a0418"></path><circle cx="1558.5" cy="800.0" r="16.2" fill="#0a0418"></circle><path d="M 1539.0 814.2 L 1578.0 814.2 L 1582.0 888.8 L 1535.0 888.8 Z" fill="#1a0d3a"></path><circle cx="1597.3" cy="800.0" r="19.1" fill="#0a0418"></circle><path d="M 1574.4 817.1 L 1620.2 817.1 L 1624.2 896.7 L 1570.4 896.7 Z" fill="#0a0418"></path><path d="M 1574.2 808.0 L 1582.2 808.0 L 1581.1 700.9 L 1573.1 700.9 Z" fill="#0a0418"></path><path d="M 1573.1 700.9 l 0 -14 l 4 0 l 0 6 l 3 0 l 0 -2 l 3 0 l 0 12 Z" fill="#0a0418"></path><circle cx="1621.7" cy="800.0" r="17.0" fill="#0a0418"></circle><path d="M 1601.3 815.0 L 1642.2 815.0 L 1646.2 896.7 L 1597.3 896.7 Z" fill="#1a0d3a"></path><circle cx="1647.8" cy="800.0" r="16.6" fill="#0a0418"></circle><path d="M 1627.9 814.6 L 1667.7 814.6 L 1671.7 880.6 L 1623.9 880.6 Z" fill="#1a0d3a"></path><circle cx="1692.9" cy="800.0" r="14.2" fill="#0a0418"></circle><path d="M 1675.9 812.2 L 1710.0 812.2 L 1714.0 893.7 L 1671.9 893.7 Z" fill="#0a0418"></path><circle cx="1719.3" cy="800.0" r="20.3" fill="#0a0418"></circle><path d="M 1694.9 818.3 L 1743.7 818.3 L 1747.7 896.3 L 1690.9 896.3 Z" fill="#0a0418"></path><path d="M 1695.0 808.0 L 1703.0 808.0 L 1693.4 730.6 L 1685.4 730.6 Z" fill="#0a0418"></path><path d="M 1685.4 730.6 l 0 -14 l 4 0 l 0 6 l 3 0 l 0 -2 l 3 0 l 0 12 Z" fill="#0a0418"></path><circle cx="1755.9" cy="800.0" r="17.5" fill="#0a0418"></circle><path d="M 1735.0 815.5 L 1776.9 815.5 L 1780.9 884.8 L 1731.0 884.8 Z" fill="#0a0418"></path><rect x="1774.9" y="720.0" width="14" height="6" fill="#1a0d3a"></rect><rect x="1788.9" y="722.0" width="10" height="2" fill="#1a0d3a"></rect><circle cx="1795.7" cy="800.0" r="21.4" fill="#0a0418"></circle><path d="M 1770.0 819.4 L 1821.4 819.4 L 1825.4 897.0 L 1766.0 897.0 Z" fill="#1a0d3a"></path><path d="M 1770.2 808.0 L 1778.2 808.0 L 1770.3 705.3 L 1762.3 705.3 Z" fill="#0a0418"></path><path d="M 1762.3 705.3 l 0 -14 l 4 0 l 0 6 l 3 0 l 0 -2 l 3 0 l 0 12 Z" fill="#0a0418"></path><circle cx="1822.8" cy="800.0" r="20.7" fill="#0a0418"></circle><path d="M 1798.0 818.7 L 1847.6 818.7 L 1851.6 899.8 L 1794.0 899.8 Z" fill="#0a0418"></path><circle cx="1846.8" cy="800.0" r="15.0" fill="#0a0418"></circle><path d="M 1828.8 813.0 L 1864.8 813.0 L 1868.8 894.0 L 1824.8 894.0 Z" fill="#0a0418"></path><circle cx="1892.0" cy="800.0" r="16.9" fill="#0a0418"></circle><path d="M 1871.7 814.9 L 1912.4 814.9 L 1916.4 883.5 L 1867.7 883.5 Z" fill="#0a0418"></path><circle cx="-1.9" cy="840.0" r="19.9" fill="#0a0418"></circle><path d="M -25.8 857.9 L 22.0 857.9 L 26.0 934.7 L -29.8 934.7 Z" fill="#0a0418"></path><circle cx="34.2" cy="840.0" r="21.1" fill="#0a0418"></circle><path d="M 8.8 859.1 L 59.5 859.1 L 63.5 932.6 L 4.8 932.6 Z" fill="#0a0418"></path><path d="M 9.1 848.0 L 17.1 848.0 L 9.6 750.5 L 1.6 750.5 Z" fill="#0a0418"></path><path d="M 1.6 750.5 l 0 -14 l 4 0 l 0 6 l 3 0 l 0 -2 l 3 0 l 0 12 Z" fill="#0a0418"></path><circle cx="65.5" cy="840.0" r="16.5" fill="#0a0418"></circle><path d="M 47.0 840.0 Q 65.5 815.5 84.1 840.0 Z" fill="#1a0d3a"></path><circle cx="53.1" cy="826.5" r="1.2" fill="#2a1463"></circle><circle cx="61.4" cy="827.0" r="1.2" fill="#2a1463"></circle><circle cx="69.7" cy="827.8" r="1.2" fill="#2a1463"></circle><circle cx="77.9" cy="823.7" r="1.2" fill="#2a1463"></circle><path d="M 45.7 854.5 L 85.4 854.5 L 89.4 930.1 L 41.7 930.1 Z" fill="#0a0418"></path><circle cx="108.5" cy="840.0" r="20.5" fill="#0a0418"></circle><path d="M 83.9 858.5 L 133.0 858.5 L 137.0 936.8 L 79.9 936.8 Z" fill="#1a0d3a"></path><circle cx="139.1" cy="840.0" r="18.4" fill="#0a0418"></circle><path d="M 117.1 856.4 L 161.2 856.4 L 165.2 930.3 L 113.1 930.3 Z" fill="#0a0418"></path><circle cx="175.5" cy="840.0" r="20.0" fill="#0a0418"></circle><path d="M 151.6 858.0 L 199.5 858.0 L 203.5 929.1 L 147.6 929.1 Z" fill="#1a0d3a"></path><path d="M 191.5 848.0 L 199.5 848.0 L 194.3 755.4 L 186.3 755.4 Z" fill="#0a0418"></path><path d="M 186.3 755.4 l 0 -14 l 4 0 l 0 6 l 3 0 l 0 -2 l 3 0 l 0 12 Z" fill="#0a0418"></path><circle cx="214.4" cy="840.0" r="21.3" fill="#0a0418"></circle><path d="M 188.9 859.3 L 240.0 859.3 L 244.0 939.2 L 184.9 939.2 Z" fill="#1a0d3a"></path><circle cx="242.9" cy="840.0" r="16.4" fill="#0a0418"></circle><path d="M 223.2 854.4 L 262.5 854.4 L 266.5 938.7 L 219.2 938.7 Z" fill="#1a0d3a"></path><circle cx="278.7" cy="840.0" r="20.4" fill="#0a0418"></circle><path d="M 256.2 840.0 Q 278.7 811.6 301.1 840.0 Z" fill="#1a0d3a"></path><circle cx="263.3" cy="821.3" r="1.2" fill="#2a1463"></circle><circle cx="273.5" cy="824.7" r="1.2" fill="#2a1463"></circle><circle cx="283.8" cy="822.9" r="1.2" fill="#2a1463"></circle><circle cx="294.0" cy="823.5" r="1.2" fill="#2a1463"></circle><path d="M 254.1 858.4 L 303.2 858.4 L 307.2 934.4 L 250.1 934.4 Z" fill="#0a0418"></path><path d="M 254.2 848.0 L 262.2 848.0 L 258.5 777.0 L 250.5 777.0 Z" fill="#0a0418"></path><path d="M 250.5 777.0 l 0 -14 l 4 0 l 0 6 l 3 0 l 0 -2 l 3 0 l 0 12 Z" fill="#0a0418"></path><circle cx="320.6" cy="840.0" r="21.9" fill="#0a0418"></circle><path d="M 294.3 859.9 L 346.8 859.9 L 350.8 923.3 L 290.3 923.3 Z" fill="#1a0d3a"></path><path d="M 338.5 848.0 L 346.5 848.0 L 336.5 752.0 L 328.5 752.0 Z" fill="#0a0418"></path><path d="M 328.5 752.0 l 0 -14 l 4 0 l 0 6 l 3 0 l 0 -2 l 3 0 l 0 12 Z" fill="#0a0418"></path><circle cx="363.2" cy="840.0" r="18.8" fill="#0a0418"></circle><path d="M 340.6 856.8 L 385.8 856.8 L 389.8 928.9 L 336.6 928.9 Z" fill="#0a0418"></path><circle cx="387.3" cy="840.0" r="15.7" fill="#0a0418"></circle><path d="M 368.4 853.7 L 406.2 853.7 L 410.2 922.8 L 364.4 922.8 Z" fill="#1a0d3a"></path><path d="M 399.0 848.0 L 407.0 848.0 L 410.1 768.6 L 402.1 768.6 Z" fill="#0a0418"></path><path d="M 402.1 768.6 l 0 -14 l 4 0 l 0 6 l 3 0 l 0 -2 l 3 0 l 0 12 Z" fill="#0a0418"></path><rect x="404.2" y="760.0" width="14" height="6" fill="#1a0d3a"></rect><rect x="418.2" y="762.0" width="10" height="2" fill="#1a0d3a"></rect><circle cx="430.6" cy="840.0" r="14.2" fill="#0a0418"></circle><path d="M 413.6 852.2 L 447.6 852.2 L 451.6 931.2 L 409.6 931.2 Z" fill="#1a0d3a"></path><circle cx="455.2" cy="840.0" r="19.7" fill="#0a0418"></circle><path d="M 431.6 857.7 L 478.8 857.7 L 482.8 928.9 L 427.6 928.9 Z" fill="#0a0418"></path><path d="M 470.8 848.0 L 478.8 848.0 L 470.9 774.1 L 462.9 774.1 Z" fill="#0a0418"></path><path d="M 462.9 774.1 l 0 -14 l 4 0 l 0 6 l 3 0 l 0 -2 l 3 0 l 0 12 Z" fill="#0a0418"></path><circle cx="503.9" cy="840.0" r="19.6" fill="#0a0418"></circle><path d="M 480.4 857.6 L 527.4 857.6 L 531.4 933.3 L 476.4 933.3 Z" fill="#0a0418"></path><circle cx="541.9" cy="840.0" r="17.2" fill="#0a0418"></circle><path d="M 522.6 840.0 Q 541.9 814.8 561.1 840.0 Z" fill="#1a0d3a"></path><circle cx="528.9" cy="827.1" r="1.2" fill="#2a1463"></circle><circle cx="537.5" cy="823.3" r="1.2" fill="#2a1463"></circle><circle cx="546.2" cy="822.8" r="1.2" fill="#2a1463"></circle><circle cx="554.8" cy="826.5" r="1.2" fill="#2a1463"></circle><path d="M 521.2 855.2 L 562.5 855.2 L 566.5 928.0 L 517.2 928.0 Z" fill="#0a0418"></path><circle cx="577.5" cy="840.0" r="17.2" fill="#0a0418"></circle><path d="M 556.9 855.2 L 598.2 855.2 L 602.2 927.6 L 552.9 927.6 Z" fill="#0a0418"></path><circle cx="597.5" cy="840.0" r="19.3" fill="#0a0418"></circle><path d="M 574.4 857.3 L 620.6 857.3 L 624.6 930.0 L 570.4 930.0 Z" fill="#1a0d3a"></path><circle cx="641.5" cy="840.0" r="15.1" fill="#0a0418"></circle><path d="M 623.3 853.1 L 659.6 853.1 L 663.6 937.1 L 619.3 937.1 Z" fill="#1a0d3a"></path><path d="M 652.6 848.0 L 660.6 848.0 L 666.8 777.8 L 658.8 777.8 Z" fill="#0a0418"></path><path d="M 658.8 777.8 l 0 -14 l 4 0 l 0 6 l 3 0 l 0 -2 l 3 0 l 0 12 Z" fill="#0a0418"></path><circle cx="684.5" cy="840.0" r="16.4" fill="#0a0418"></circle><path d="M 666.1 840.0 Q 684.5 815.6 702.9 840.0 Z" fill="#1a0d3a"></path><circle cx="672.2" cy="823.2" r="1.2" fill="#2a1463"></circle><circle cx="680.4" cy="827.6" r="1.2" fill="#2a1463"></circle><circle cx="688.6" cy="826.1" r="1.2" fill="#2a1463"></circle><circle cx="696.8" cy="828.2" r="1.2" fill="#2a1463"></circle><path d="M 664.8 854.4 L 704.1 854.4 L 708.1 938.9 L 660.8 938.9 Z" fill="#0a0418"></path><path d="M 664.1 848.0 L 672.1 848.0 L 675.5 765.3 L 667.5 765.3 Z" fill="#0a0418"></path><path d="M 667.5 765.3 l 0 -14 l 4 0 l 0 6 l 3 0 l 0 -2 l 3 0 l 0 12 Z" fill="#0a0418"></path><rect x="702.1" y="760.0" width="14" height="6" fill="#1a0d3a"></rect><rect x="716.1" y="762.0" width="10" height="2" fill="#1a0d3a"></rect><circle cx="720.1" cy="840.0" r="16.3" fill="#0a0418"></circle><path d="M 700.4 854.3 L 739.7 854.3 L 743.7 931.4 L 696.4 931.4 Z" fill="#0a0418"></path><circle cx="739.0" cy="840.0" r="21.5" fill="#0a0418"></circle><path d="M 713.2 859.5 L 764.8 859.5 L 768.8 938.2 L 709.2 938.2 Z" fill="#0a0418"></path><circle cx="789.0" cy="840.0" r="20.3" fill="#0a0418"></circle><path d="M 764.5 858.3 L 813.4 858.3 L 817.4 921.5 L 760.5 921.5 Z" fill="#1a0d3a"></path><circle cx="810.4" cy="840.0" r="14.3" fill="#0a0418"></circle><path d="M 793.3 852.3 L 827.6 852.3 L 831.6 926.2 L 789.3 926.2 Z" fill="#1a0d3a"></path><path d="M 792.2 848.0 L 800.2 848.0 L 791.4 764.1 L 783.4 764.1 Z" fill="#0a0418"></path><path d="M 783.4 764.1 l 0 -14 l 4 0 l 0 6 l 3 0 l 0 -2 l 3 0 l 0 12 Z" fill="#0a0418"></path><circle cx="854.5" cy="840.0" r="15.7" fill="#0a0418"></circle><path d="M 835.6 853.7 L 873.3 853.7 L 877.3 934.7 L 831.6 934.7 Z" fill="#0a0418"></path><circle cx="882.7" cy="840.0" r="21.8" fill="#0a0418"></circle><path d="M 856.5 859.8 L 908.8 859.8 L 912.8 937.9 L 852.5 937.9 Z" fill="#1a0d3a"></path><circle cx="923.1" cy="840.0" r="17.9" fill="#0a0418"></circle><path d="M 901.6 855.9 L 944.6 855.9 L 948.6 932.0 L 897.6 932.0 Z" fill="#0a0418"></path><circle cx="956.3" cy="840.0" r="19.9" fill="#0a0418"></circle><path d="M 932.4 857.9 L 980.2 857.9 L 984.2 930.9 L 928.4 930.9 Z" fill="#0a0418"></path><path d="M 972.2 848.0 L 980.2 848.0 L 966.0 751.7 L 958.0 751.7 Z" fill="#0a0418"></path><path d="M 958.0 751.7 l 0 -14 l 4 0 l 0 6 l 3 0 l 0 -2 l 3 0 l 0 12 Z" fill="#0a0418"></path><circle cx="1000.1" cy="840.0" r="16.7" fill="#0a0418"></circle><path d="M 980.0 854.7 L 1020.2 854.7 L 1024.2 930.9 L 976.0 930.9 Z" fill="#1a0d3a"></path><circle cx="1025.8" cy="840.0" r="14.4" fill="#0a0418"></circle><path d="M 1009.4 840.0 Q 1025.8 817.6 1042.1 840.0 Z" fill="#1a0d3a"></path><circle cx="1015.0" cy="828.0" r="1.2" fill="#2a1463"></circle><circle cx="1022.2" cy="828.8" r="1.2" fill="#2a1463"></circle><circle cx="1029.3" cy="827.4" r="1.2" fill="#2a1463"></circle><circle cx="1036.5" cy="827.8" r="1.2" fill="#2a1463"></circle><path d="M 1008.5 852.4 L 1043.0 852.4 L 1047.0 938.9 L 1004.5 938.9 Z" fill="#1a0d3a"></path><circle cx="1068.2" cy="840.0" r="21.0" fill="#0a0418"></circle><path d="M 1042.9 859.0 L 1093.4 859.0 L 1097.4 927.9 L 1038.9 927.9 Z" fill="#0a0418"></path><circle cx="1107.7" cy="840.0" r="16.1" fill="#0a0418"></circle><path d="M 1088.3 854.1 L 1127.1 854.1 L 1131.1 922.9 L 1084.3 922.9 Z" fill="#0a0418"></path><circle cx="1139.6" cy="840.0" r="16.8" fill="#0a0418"></circle><path d="M 1119.5 854.8 L 1159.7 854.8 L 1163.7 929.1 L 1115.5 929.1 Z" fill="#0a0418"></path><circle cx="1166.2" cy="840.0" r="20.3" fill="#0a0418"></circle><path d="M 1141.8 858.3 L 1190.5 858.3 L 1194.5 920.7 L 1137.8 920.7 Z" fill="#1a0d3a"></path><circle cx="1207.6" cy="840.0" r="16.2" fill="#0a0418"></circle><path d="M 1188.1 854.2 L 1227.1 854.2 L 1231.1 922.5 L 1184.1 922.5 Z" fill="#0a0418"></path><circle cx="1241.0" cy="840.0" r="17.1" fill="#0a0418"></circle><path d="M 1220.5 855.1 L 1261.5 855.1 L 1265.5 929.2 L 1216.5 929.2 Z" fill="#1a0d3a"></path><circle cx="1278.4" cy="840.0" r="20.7" fill="#0a0418"></circle><path d="M 1255.7 840.0 Q 1278.4 811.3 1301.1 840.0 Z" fill="#1a0d3a"></path><circle cx="1262.9" cy="825.4" r="1.2" fill="#2a1463"></circle><circle cx="1273.2" cy="822.2" r="1.2" fill="#2a1463"></circle><circle cx="1283.6" cy="824.9" r="1.2" fill="#2a1463"></circle><circle cx="1293.9" cy="822.5" r="1.2" fill="#2a1463"></circle><path d="M 1253.5 858.7 L 1303.3 858.7 L 1307.3 931.0 L 1249.5 931.0 Z" fill="#0a0418"></path><circle cx="1317.6" cy="840.0" r="14.5" fill="#0a0418"></circle><path d="M 1300.1 852.5 L 1335.0 852.5 L 1339.0 926.3 L 1296.1 926.3 Z" fill="#0a0418"></path><rect x="1333.0" y="760.0" width="14" height="6" fill="#1a0d3a"></rect><rect x="1347.0" y="762.0" width="10" height="2" fill="#1a0d3a"></rect><circle cx="1354.4" cy="840.0" r="17.2" fill="#0a0418"></circle><path d="M 1333.8 855.2 L 1375.1 855.2 L 1379.1 937.2 L 1329.8 937.2 Z" fill="#1a0d3a"></path><circle cx="1378.0" cy="840.0" r="18.8" fill="#0a0418"></circle><path d="M 1355.5 856.8 L 1400.6 856.8 L 1404.6 938.1 L 1351.5 938.1 Z" fill="#0a0418"></path><path d="M 1355.3 848.0 L 1363.3 848.0 L 1354.5 746.0 L 1346.5 746.0 Z" fill="#0a0418"></path><path d="M 1346.5 746.0 l 0 -14 l 4 0 l 0 6 l 3 0 l 0 -2 l 3 0 l 0 12 Z" fill="#0a0418"></path><circle cx="1426.3" cy="840.0" r="17.9" fill="#0a0418"></circle><path d="M 1404.8 855.9 L 1447.8 855.9 L 1451.8 920.1 L 1400.8 920.1 Z" fill="#0a0418"></path><circle cx="1461.2" cy="840.0" r="16.9" fill="#0a0418"></circle><path d="M 1440.9 854.9 L 1481.5 854.9 L 1485.5 939.2 L 1436.9 939.2 Z" fill="#1a0d3a"></path><circle cx="1492.4" cy="840.0" r="17.8" fill="#0a0418"></circle><path d="M 1472.6 840.0 Q 1492.4 814.2 1512.1 840.0 Z" fill="#1a0d3a"></path><circle cx="1479.0" cy="823.5" r="1.2" fill="#2a1463"></circle><circle cx="1487.9" cy="827.3" r="1.2" fill="#2a1463"></circle><circle cx="1496.8" cy="822.2" r="1.2" fill="#2a1463"></circle><circle cx="1505.7" cy="822.3" r="1.2" fill="#2a1463"></circle><path d="M 1471.0 855.8 L 1513.7 855.8 L 1517.7 928.8 L 1467.0 928.8 Z" fill="#0a0418"></path><path d="M 1470.6 848.0 L 1478.6 848.0 L 1479.6 770.8 L 1471.6 770.8 Z" fill="#0a0418"></path><path d="M 1471.6 770.8 l 0 -14 l 4 0 l 0 6 l 3 0 l 0 -2 l 3 0 l 0 12 Z" fill="#0a0418"></path><circle cx="1536.1" cy="840.0" r="18.9" fill="#0a0418"></circle><path d="M 1513.3 856.9 L 1558.8 856.9 L 1562.8 932.8 L 1509.3 932.8 Z" fill="#1a0d3a"></path><circle cx="1565.1" cy="840.0" r="21.2" fill="#0a0418"></circle><path d="M 1539.7 859.2 L 1590.6 859.2 L 1594.6 940.0 L 1535.7 940.0 Z" fill="#0a0418"></path><circle cx="1604.5" cy="840.0" r="21.8" fill="#0a0418"></circle><path d="M 1578.4 859.8 L 1630.7 859.8 L 1634.7 936.8 L 1574.4 936.8 Z" fill="#0a0418"></path><circle cx="1629.8" cy="840.0" r="17.8" fill="#0a0418"></circle><path d="M 1608.5 855.8 L 1651.1 855.8 L 1655.1 938.0 L 1604.5 938.0 Z" fill="#0a0418"></path><circle cx="1677.1" cy="840.0" r="15.1" fill="#0a0418"></circle><path d="M 1659.0 853.1 L 1695.1 853.1 L 1699.1 937.8 L 1655.0 937.8 Z" fill="#1a0d3a"></path><circle cx="1704.3" cy="840.0" r="16.6" fill="#0a0418"></circle><path d="M 1684.4 854.6 L 1724.2 854.6 L 1728.2 923.2 L 1680.4 923.2 Z" fill="#0a0418"></path><path d="M 1683.7 848.0 L 1691.7 848.0 L 1680.1 754.4 L 1672.1 754.4 Z" fill="#0a0418"></path><path d="M 1672.1 754.4 l 0 -14 l 4 0 l 0 6 l 3 0 l 0 -2 l 3 0 l 0 12 Z" fill="#0a0418"></path><circle cx="1742.5" cy="840.0" r="16.7" fill="#0a0418"></circle><path d="M 1722.5 854.7 L 1762.5 854.7 L 1766.5 925.7 L 1718.5 925.7 Z" fill="#0a0418"></path><path d="M 1721.9 848.0 L 1729.9 848.0 L 1738.8 759.8 L 1730.8 759.8 Z" fill="#0a0418"></path><path d="M 1730.8 759.8 l 0 -14 l 4 0 l 0 6 l 3 0 l 0 -2 l 3 0 l 0 12 Z" fill="#0a0418"></path><circle cx="1776.8" cy="840.0" r="15.7" fill="#0a0418"></circle><path d="M 1757.9 853.7 L 1795.6 853.7 L 1799.6 939.5 L 1753.9 939.5 Z" fill="#1a0d3a"></path><path d="M 1757.1 848.0 L 1765.1 848.0 L 1769.6 753.9 L 1761.6 753.9 Z" fill="#0a0418"></path><path d="M 1761.6 753.9 l 0 -14 l 4 0 l 0 6 l 3 0 l 0 -2 l 3 0 l 0 12 Z" fill="#0a0418"></path><circle cx="1814.0" cy="840.0" r="18.5" fill="#0a0418"></circle><path d="M 1791.8 856.5 L 1836.2 856.5 L 1840.2 930.6 L 1787.8 930.6 Z" fill="#1a0d3a"></path><circle cx="1847.8" cy="840.0" r="15.7" fill="#0a0418"></circle><path d="M 1829.0 853.7 L 1866.7 853.7 L 1870.7 922.7 L 1825.0 922.7 Z" fill="#0a0418"></path><circle cx="1892.6" cy="840.0" r="18.4" fill="#0a0418"></circle><path d="M 1872.2 840.0 Q 1892.6 813.6 1913.0 840.0 Z" fill="#1a0d3a"></path><circle cx="1878.8" cy="824.2" r="1.2" fill="#2a1463"></circle><circle cx="1888.0" cy="822.9" r="1.2" fill="#2a1463"></circle><circle cx="1897.2" cy="822.0" r="1.2" fill="#2a1463"></circle><circle cx="1906.4" cy="827.1" r="1.2" fill="#2a1463"></circle><path d="M 1870.6 856.4 L 1914.7 856.4 L 1918.7 929.1 L 1866.6 929.1 Z" fill="#1a0d3a"></path><circle cx="-1.3" cy="880.0" r="16.8" fill="#0a0418"></circle><path d="M -21.5 894.8 L 18.9 894.8 L 22.9 970.5 L -25.5 970.5 Z" fill="#1a0d3a"></path><circle cx="43.9" cy="880.0" r="21.7" fill="#0a0418"></circle><path d="M 17.8 899.7 L 69.9 899.7 L 73.9 977.6 L 13.8 977.6 Z" fill="#0a0418"></path><circle cx="80.4" cy="880.0" r="14.1" fill="#0a0418"></circle><path d="M 63.5 892.1 L 97.2 892.1 L 101.2 961.0 L 59.5 961.0 Z" fill="#1a0d3a"></path><path d="M 62.3 888.0 L 70.3 888.0 L 75.4 781.0 L 67.4 781.0 Z" fill="#0a0418"></path><path d="M 67.4 781.0 l 0 -14 l 4 0 l 0 6 l 3 0 l 0 -2 l 3 0 l 0 12 Z" fill="#0a0418"></path><circle cx="108.3" cy="880.0" r="18.0" fill="#0a0418"></circle><path d="M 86.7 896.0 L 129.9 896.0 L 133.9 978.6 L 82.7 978.6 Z" fill="#0a0418"></path><path d="M 122.3 888.0 L 130.3 888.0 L 138.3 781.3 L 130.3 781.3 Z" fill="#0a0418"></path><path d="M 130.3 781.3 l 0 -14 l 4 0 l 0 6 l 3 0 l 0 -2 l 3 0 l 0 12 Z" fill="#0a0418"></path><circle cx="148.6" cy="880.0" r="20.3" fill="#0a0418"></circle><path d="M 124.3 898.3 L 173.0 898.3 L 177.0 977.5 L 120.3 977.5 Z" fill="#1a0d3a"></path><path d="M 164.9 888.0 L 172.9 888.0 L 176.6 782.8 L 168.6 782.8 Z" fill="#0a0418"></path><path d="M 168.6 782.8 l 0 -14 l 4 0 l 0 6 l 3 0 l 0 -2 l 3 0 l 0 12 Z" fill="#0a0418"></path><circle cx="199.0" cy="880.0" r="20.1" fill="#0a0418"></circle><path d="M 174.9 898.1 L 223.1 898.1 L 227.1 968.9 L 170.9 968.9 Z" fill="#1a0d3a"></path><path d="M 174.9 888.0 L 182.9 888.0 L 175.2 796.2 L 167.2 796.2 Z" fill="#0a0418"></path><path d="M 167.2 796.2 l 0 -14 l 4 0 l 0 6 l 3 0 l 0 -2 l 3 0 l 0 12 Z" fill="#0a0418"></path><circle cx="229.0" cy="880.0" r="15.1" fill="#0a0418"></circle><path d="M 210.9 893.1 L 247.2 893.1 L 251.2 973.7 L 206.9 973.7 Z" fill="#0a0418"></path><path d="M 209.9 888.0 L 217.9 888.0 L 232.3 787.4 L 224.3 787.4 Z" fill="#0a0418"></path><path d="M 224.3 787.4 l 0 -14 l 4 0 l 0 6 l 3 0 l 0 -2 l 3 0 l 0 12 Z" fill="#0a0418"></path><circle cx="267.6" cy="880.0" r="15.0" fill="#0a0418"></circle><path d="M 250.6 880.0 Q 267.6 857.0 284.6 880.0 Z" fill="#1a0d3a"></path><circle cx="256.4" cy="865.0" r="1.2" fill="#2a1463"></circle><circle cx="263.9" cy="868.5" r="1.2" fill="#2a1463"></circle><circle cx="271.4" cy="867.3" r="1.2" fill="#2a1463"></circle><circle cx="278.9" cy="866.5" r="1.2" fill="#2a1463"></circle><path d="M 249.6 893.0 L 285.6 893.0 L 289.6 967.3 L 245.6 967.3 Z" fill="#1a0d3a"></path><circle cx="315.5" cy="880.0" r="20.1" fill="#0a0418"></circle><path d="M 293.4 880.0 Q 315.5 851.9 337.6 880.0 Z" fill="#1a0d3a"></path><circle cx="300.4" cy="861.4" r="1.2" fill="#2a1463"></circle><circle cx="310.5" cy="865.5" r="1.2" fill="#2a1463"></circle><circle cx="320.5" cy="864.8" r="1.2" fill="#2a1463"></circle><circle cx="330.6" cy="864.6" r="1.2" fill="#2a1463"></circle><path d="M 291.4 898.1 L 339.6 898.1 L 343.6 978.4 L 287.4 978.4 Z" fill="#1a0d3a"></path><rect x="337.6" y="800.0" width="14" height="6" fill="#1a0d3a"></rect><rect x="351.6" y="802.0" width="10" height="2" fill="#1a0d3a"></rect><circle cx="350.7" cy="880.0" r="17.5" fill="#0a0418"></circle><path d="M 329.7 895.5 L 371.7 895.5 L 375.7 960.8 L 325.7 960.8 Z" fill="#1a0d3a"></path><path d="M 364.2 888.0 L 372.2 888.0 L 365.0 808.9 L 357.0 808.9 Z" fill="#0a0418"></path><path d="M 357.0 808.9 l 0 -14 l 4 0 l 0 6 l 3 0 l 0 -2 l 3 0 l 0 12 Z" fill="#0a0418"></path><circle cx="387.5" cy="880.0" r="14.5" fill="#0a0418"></circle><path d="M 370.2 892.5 L 404.9 892.5 L 408.9 963.6 L 366.2 963.6 Z" fill="#0a0418"></path><circle cx="420.4" cy="880.0" r="21.9" fill="#0a0418"></circle><path d="M 394.2 899.9 L 446.6 899.9 L 450.6 968.9 L 390.2 968.9 Z" fill="#0a0418"></path><circle cx="452.9" cy="880.0" r="18.1" fill="#0a0418"></circle><path d="M 431.2 896.1 L 474.6 896.1 L 478.6 979.9 L 427.2 979.9 Z" fill="#0a0418"></path><circle cx="500.7" cy="880.0" r="16.2" fill="#0a0418"></circle><path d="M 481.3 894.2 L 520.1 894.2 L 524.1 979.0 L 477.3 979.0 Z" fill="#1a0d3a"></path><circle cx="534.8" cy="880.0" r="15.7" fill="#0a0418"></circle><path d="M 516.0 893.7 L 553.6 893.7 L 557.6 971.0 L 512.0 971.0 Z" fill="#0a0418"></path><path d="M 546.5 888.0 L 554.5 888.0 L 558.8 785.2 L 550.8 785.2 Z" fill="#0a0418"></path><path d="M 550.8 785.2 l 0 -14 l 4 0 l 0 6 l 3 0 l 0 -2 l 3 0 l 0 12 Z" fill="#0a0418"></path><circle cx="575.1" cy="880.0" r="20.1" fill="#0a0418"></circle><path d="M 551.0 898.1 L 599.2 898.1 L 603.2 962.9 L 547.0 962.9 Z" fill="#0a0418"></path><circle cx="609.4" cy="880.0" r="14.3" fill="#0a0418"></circle><path d="M 593.0 880.0 Q 609.4 857.7 625.7 880.0 Z" fill="#1a0d3a"></path><circle cx="598.6" cy="865.9" r="1.2" fill="#2a1463"></circle><circle cx="605.8" cy="868.3" r="1.2" fill="#2a1463"></circle><circle cx="612.9" cy="867.6" r="1.2" fill="#2a1463"></circle><circle cx="620.1" cy="867.8" r="1.2" fill="#2a1463"></circle><path d="M 592.2 892.3 L 626.5 892.3 L 630.5 976.6 L 588.2 976.6 Z" fill="#0a0418"></path><circle cx="648.5" cy="880.0" r="18.8" fill="#0a0418"></circle><path d="M 626.0 896.8 L 671.0 896.8 L 675.0 970.4 L 622.0 970.4 Z" fill="#0a0418"></path><circle cx="700.1" cy="880.0" r="17.3" fill="#0a0418"></circle><path d="M 679.3 895.3 L 720.9 895.3 L 724.9 979.9 L 675.3 979.9 Z" fill="#1a0d3a"></path><circle cx="727.6" cy="880.0" r="21.2" fill="#0a0418"></circle><path d="M 702.3 899.2 L 753.0 899.2 L 757.0 964.5 L 698.3 964.5 Z" fill="#0a0418"></path><circle cx="765.2" cy="880.0" r="15.0" fill="#0a0418"></circle><path d="M 747.2 893.0 L 783.2 893.0 L 787.2 975.9 L 743.2 975.9 Z" fill="#1a0d3a"></path><circle cx="800.6" cy="880.0" r="20.5" fill="#0a0418"></circle><path d="M 776.0 898.5 L 825.1 898.5 L 829.1 967.2 L 772.0 967.2 Z" fill="#1a0d3a"></path><circle cx="841.1" cy="880.0" r="18.9" fill="#0a0418"></circle><path d="M 818.4 896.9 L 863.7 896.9 L 867.7 963.0 L 814.4 963.0 Z" fill="#0a0418"></path><circle cx="888.6" cy="880.0" r="17.8" fill="#0a0418"></circle><path d="M 867.2 895.8 L 910.0 895.8 L 914.0 974.2 L 863.2 974.2 Z" fill="#0a0418"></path><path d="M 902.4 888.0 L 910.4 888.0 L 921.1 790.8 L 913.1 790.8 Z" fill="#0a0418"></path><path d="M 913.1 790.8 l 0 -14 l 4 0 l 0 6 l 3 0 l 0 -2 l 3 0 l 0 12 Z" fill="#0a0418"></path><circle cx="919.5" cy="880.0" r="21.9" fill="#0a0418"></circle><path d="M 893.2 899.9 L 945.8 899.9 L 949.8 975.8 L 889.2 975.8 Z" fill="#0a0418"></path><circle cx="956.7" cy="880.0" r="16.3" fill="#0a0418"></circle><path d="M 937.2 894.3 L 976.3 894.3 L 980.3 975.7 L 933.2 975.7 Z" fill="#0a0418"></path><circle cx="990.6" cy="880.0" r="14.4" fill="#0a0418"></circle><path d="M 973.4 892.4 L 1007.9 892.4 L 1011.9 970.5 L 969.4 970.5 Z" fill="#0a0418"></path><circle cx="1043.3" cy="880.0" r="15.0" fill="#0a0418"></circle><path d="M 1025.2 893.0 L 1061.3 893.0 L 1065.3 969.8 L 1021.2 969.8 Z" fill="#0a0418"></path><circle cx="1084.1" cy="880.0" r="16.7" fill="#0a0418"></circle><path d="M 1064.1 894.7 L 1104.2 894.7 L 1108.2 962.1 L 1060.1 962.1 Z" fill="#0a0418"></path><circle cx="1120.5" cy="880.0" r="19.8" fill="#0a0418"></circle><path d="M 1096.8 897.8 L 1144.3 897.8 L 1148.3 968.2 L 1092.8 968.2 Z" fill="#0a0418"></path><path d="M 1096.8 888.0 L 1104.8 888.0 L 1102.7 788.9 L 1094.7 788.9 Z" fill="#0a0418"></path><path d="M 1094.7 788.9 l 0 -14 l 4 0 l 0 6 l 3 0 l 0 -2 l 3 0 l 0 12 Z" fill="#0a0418"></path><circle cx="1144.3" cy="880.0" r="18.5" fill="#0a0418"></circle><path d="M 1122.1 896.5 L 1166.4 896.5 L 1170.4 966.8 L 1118.1 966.8 Z" fill="#0a0418"></path><circle cx="1199.0" cy="880.0" r="19.7" fill="#0a0418"></circle><path d="M 1175.3 897.7 L 1222.6 897.7 L 1226.6 975.5 L 1171.3 975.5 Z" fill="#0a0418"></path><circle cx="1229.8" cy="880.0" r="19.1" fill="#0a0418"></circle><path d="M 1206.9 897.1 L 1252.7 897.1 L 1256.7 969.2 L 1202.9 969.2 Z" fill="#0a0418"></path><circle cx="1274.5" cy="880.0" r="21.4" fill="#0a0418"></circle><path d="M 1248.8 899.4 L 1300.1 899.4 L 1304.1 961.7 L 1244.8 961.7 Z" fill="#0a0418"></path><circle cx="1307.7" cy="880.0" r="18.8" fill="#0a0418"></circle><path d="M 1285.2 896.8 L 1330.3 896.8 L 1334.3 975.5 L 1281.2 975.5 Z" fill="#1a0d3a"></path><circle cx="1341.2" cy="880.0" r="17.6" fill="#0a0418"></circle><path d="M 1320.0 895.6 L 1362.3 895.6 L 1366.3 967.6 L 1316.0 967.6 Z" fill="#0a0418"></path><path d="M 1354.8 888.0 L 1362.8 888.0 L 1358.1 800.1 L 1350.1 800.1 Z" fill="#0a0418"></path><path d="M 1350.1 800.1 l 0 -14 l 4 0 l 0 6 l 3 0 l 0 -2 l 3 0 l 0 12 Z" fill="#0a0418"></path><circle cx="1379.7" cy="880.0" r="18.4" fill="#0a0418"></circle><path d="M 1357.6 896.4 L 1401.8 896.4 L 1405.8 967.3 L 1353.6 967.3 Z" fill="#0a0418"></path><circle cx="1418.9" cy="880.0" r="18.0" fill="#0a0418"></circle><path d="M 1397.3 896.0 L 1440.5 896.0 L 1444.5 964.5 L 1393.3 964.5 Z" fill="#1a0d3a"></path><circle cx="1462.6" cy="880.0" r="21.1" fill="#0a0418"></circle><path d="M 1437.3 899.1 L 1488.0 899.1 L 1492.0 968.1 L 1433.3 968.1 Z" fill="#1a0d3a"></path><circle cx="1498.3" cy="880.0" r="15.9" fill="#0a0418"></circle><path d="M 1479.2 893.9 L 1517.4 893.9 L 1521.4 978.3 L 1475.2 978.3 Z" fill="#0a0418"></path><circle cx="1540.1" cy="880.0" r="15.0" fill="#0a0418"></circle><path d="M 1522.1 893.0 L 1558.1 893.0 L 1562.1 978.5 L 1518.1 978.5 Z" fill="#0a0418"></path><circle cx="1581.7" cy="880.0" r="15.8" fill="#0a0418"></circle><path d="M 1562.8 893.8 L 1600.7 893.8 L 1604.7 974.5 L 1558.8 974.5 Z" fill="#0a0418"></path><circle cx="1621.3" cy="880.0" r="15.0" fill="#0a0418"></circle><path d="M 1603.2 893.0 L 1639.3 893.0 L 1643.3 974.8 L 1599.2 974.8 Z" fill="#1a0d3a"></path><circle cx="1657.9" cy="880.0" r="18.4" fill="#0a0418"></circle><path d="M 1635.8 896.4 L 1679.9 896.4 L 1683.9 977.8 L 1631.8 977.8 Z" fill="#1a0d3a"></path><circle cx="1682.6" cy="880.0" r="17.6" fill="#0a0418"></circle><path d="M 1661.4 895.6 L 1703.7 895.6 L 1707.7 976.7 L 1657.4 976.7 Z" fill="#0a0418"></path><circle cx="1720.7" cy="880.0" r="19.1" fill="#0a0418"></circle><path d="M 1697.7 897.1 L 1743.7 897.1 L 1747.7 969.6 L 1693.7 969.6 Z" fill="#1a0d3a"></path><circle cx="1767.2" cy="880.0" r="15.8" fill="#0a0418"></circle><path d="M 1748.2 893.8 L 1786.2 893.8 L 1790.2 976.7 L 1744.2 976.7 Z" fill="#0a0418"></path><circle cx="1809.1" cy="880.0" r="18.0" fill="#0a0418"></circle><path d="M 1787.5 896.0 L 1830.7 896.0 L 1834.7 967.3 L 1783.5 967.3 Z" fill="#1a0d3a"></path><path d="M 1787.1 888.0 L 1795.1 888.0 L 1784.7 780.4 L 1776.7 780.4 Z" fill="#0a0418"></path><path d="M 1776.7 780.4 l 0 -14 l 4 0 l 0 6 l 3 0 l 0 -2 l 3 0 l 0 12 Z" fill="#0a0418"></path><circle cx="1845.4" cy="880.0" r="18.3" fill="#0a0418"></circle><path d="M 1823.5 896.3 L 1867.3 896.3 L 1871.3 976.8 L 1819.5 976.8 Z" fill="#0a0418"></path><circle cx="1880.8" cy="880.0" r="18.5" fill="#0a0418"></circle><path d="M 1858.6 896.5 L 1903.1 896.5 L 1907.1 974.8 L 1854.6 974.8 Z" fill="#0a0418"></path>

  
  <rect width="1920" height="1080" filter="url(#grain)"></rect>
</svg>