
<svg xmlns="http://www.w3.org/2000/svg" viewBox="0 0 1200 900">

  <defs>
    <linearGradient id="bg-d" x1="0%" y1="0%" x2="0%" y2="100%">
      <stop offset="0%" stop-color="#0a0612"></stop>
      <stop offset="100%" stop-color="#1c0e2c"></stop>
    </linearGradient>
    <radialGradient id="spot-d" cx="50%" cy="35%" r="55%">
      <stop offset="0%" stop-color="#fff" stop-opacity=".5"></stop>
      <stop offset="60%" stop-color="#fff" stop-opacity=".06"></stop>
      <stop offset="100%" stop-color="#fff" stop-opacity="0"></stop>
    </radialGradient>
    <filter id="grain-d">
      <feTurbulence type="fractalNoise" baseFrequency="0.85" numOctaves="2" seed="100"></feTurbulence>
      <feColorMatrix values="0 0 0 0 0  0 0 0 0 0  0 0 0 0 0  0 0 0 .08 0"></feColorMatrix>
    </filter>
    <filter id="smoke-d">
      <feTurbulence type="fractalNoise" baseFrequency="0.012 0.02" numOctaves="2" seed="1"></feTurbulence>
      <feColorMatrix values="0 0 0 0 1  0 0 0 0 1  0 0 0 0 1  0 0 0 .14 0"></feColorMatrix>
    </filter>
  </defs>

<rect width="1200" height="900" fill="url(#bg-d)"></rect>

<g>
  
        <rect x="60" y="80" width="160" height="180" fill="#1f1428" stroke="#000" stroke-width="2"></rect>
        <rect x="60" y="80" width="160" height="6" fill="rgba(255,255,255,.06)"></rect>
        <rect x="74" y="98" width="40" height="14" fill="#e6c54a" opacity=".85"></rect>
        <text x="94" y="110" font-family="JetBrains Mono, monospace" font-size="9" fill="#000" text-anchor="middle" font-weight="700">001</text>
        <rect x="190" y="176" width="14" height="34" fill="#0a0a0a" stroke="rgba(255,255,255,.18)"></rect>
        <rect x="84" y="138" width="120" height="84" fill="#f0247a" opacity=".18"></rect>
      
        <rect x="240" y="80" width="160" height="180" fill="#1f1428" stroke="#000" stroke-width="2"></rect>
        <rect x="240" y="80" width="160" height="6" fill="rgba(255,255,255,.06)"></rect>
        <rect x="254" y="98" width="40" height="14" fill="#e6c54a" opacity=".85"></rect>
        <text x="274" y="110" font-family="JetBrains Mono, monospace" font-size="9" fill="#000" text-anchor="middle" font-weight="700">002</text>
        <rect x="370" y="176" width="14" height="34" fill="#0a0a0a" stroke="rgba(255,255,255,.18)"></rect>
        
      
        <rect x="420" y="80" width="160" height="180" fill="#1f1428" stroke="#000" stroke-width="2"></rect>
        <rect x="420" y="80" width="160" height="6" fill="rgba(255,255,255,.06)"></rect>
        <rect x="434" y="98" width="40" height="14" fill="#e6c54a" opacity=".85"></rect>
        <text x="454" y="110" font-family="JetBrains Mono, monospace" font-size="9" fill="#000" text-anchor="middle" font-weight="700">003</text>
        <rect x="550" y="176" width="14" height="34" fill="#0a0a0a" stroke="rgba(255,255,255,.18)"></rect>
        
      
        <rect x="600" y="80" width="160" height="180" fill="#1f1428" stroke="#000" stroke-width="2"></rect>
        <rect x="600" y="80" width="160" height="6" fill="rgba(255,255,255,.06)"></rect>
        <rect x="614" y="98" width="40" height="14" fill="#e6c54a" opacity=".85"></rect>
        <text x="634" y="110" font-family="JetBrains Mono, monospace" font-size="9" fill="#000" text-anchor="middle" font-weight="700">004</text>
        <rect x="730" y="176" width="14" height="34" fill="#0a0a0a" stroke="rgba(255,255,255,.18)"></rect>
        
      
        <rect x="780" y="80" width="160" height="180" fill="#1f1428" stroke="#000" stroke-width="2"></rect>
        <rect x="780" y="80" width="160" height="6" fill="rgba(255,255,255,.06)"></rect>
        <rect x="794" y="98" width="40" height="14" fill="#e6c54a" opacity=".85"></rect>
        <text x="814" y="110" font-family="JetBrains Mono, monospace" font-size="9" fill="#000" text-anchor="middle" font-weight="700">005</text>
        <rect x="910" y="176" width="14" height="34" fill="#0a0a0a" stroke="rgba(255,255,255,.18)"></rect>
        
      
        <rect x="960" y="80" width="160" height="180" fill="#1f1428" stroke="#000" stroke-width="2"></rect>
        <rect x="960" y="80" width="160" height="6" fill="rgba(255,255,255,.06)"></rect>
        <rect x="974" y="98" width="40" height="14" fill="#e6c54a" opacity=".85"></rect>
        <text x="994" y="110" font-family="JetBrains Mono, monospace" font-size="9" fill="#000" text-anchor="middle" font-weight="700">006</text>
        <rect x="1090" y="176" width="14" height="34" fill="#0a0a0a" stroke="rgba(255,255,255,.18)"></rect>
        <rect x="984" y="138" width="120" height="84" fill="#f0247a" opacity=".18"></rect>
      
        <rect x="60" y="280" width="160" height="180" fill="#1f1428" stroke="#000" stroke-width="2"></rect>
        <rect x="60" y="280" width="160" height="6" fill="rgba(255,255,255,.06)"></rect>
        <rect x="74" y="298" width="40" height="14" fill="#e6c54a" opacity=".85"></rect>
        <text x="94" y="310" font-family="JetBrains Mono, monospace" font-size="9" fill="#000" text-anchor="middle" font-weight="700">007</text>
        <rect x="190" y="376" width="14" height="34" fill="#0a0a0a" stroke="rgba(255,255,255,.18)"></rect>
        
      
        <rect x="240" y="280" width="160" height="180" fill="#1f1428" stroke="#000" stroke-width="2"></rect>
        <rect x="240" y="280" width="160" height="6" fill="rgba(255,255,255,.06)"></rect>
        <rect x="254" y="298" width="40" height="14" fill="#e6c54a" opacity=".85"></rect>
        <text x="274" y="310" font-family="JetBrains Mono, monospace" font-size="9" fill="#000" text-anchor="middle" font-weight="700">008</text>
        <rect x="370" y="376" width="14" height="34" fill="#0a0a0a" stroke="rgba(255,255,255,.18)"></rect>
        
      
        <rect x="420" y="280" width="160" height="180" fill="#1f1428" stroke="#000" stroke-width="2"></rect>
        <rect x="420" y="280" width="160" height="6" fill="rgba(255,255,255,.06)"></rect>
        <rect x="434" y="298" width="40" height="14" fill="#e6c54a" opacity=".85"></rect>
        <text x="454" y="310" font-family="JetBrains Mono, monospace" font-size="9" fill="#000" text-anchor="middle" font-weight="700">009</text>
        <rect x="550" y="376" width="14" height="34" fill="#0a0a0a" stroke="rgba(255,255,255,.18)"></rect>
        
      
        <rect x="600" y="280" width="160" height="180" fill="#1f1428" stroke="#000" stroke-width="2"></rect>
        <rect x="600" y="280" width="160" height="6" fill="rgba(255,255,255,.06)"></rect>
        <rect x="614" y="298" width="40" height="14" fill="#e6c54a" opacity=".85"></rect>
        <text x="634" y="310" font-family="JetBrains Mono, monospace" font-size="9" fill="#000" text-anchor="middle" font-weight="700">010</text>
        <rect x="730" y="376" width="14" height="34" fill="#0a0a0a" stroke="rgba(255,255,255,.18)"></rect>
        
      
        <rect x="780" y="280" width="160" height="180" fill="#1f1428" stroke="#000" stroke-width="2"></rect>
        <rect x="780" y="280" width="160" height="6" fill="rgba(255,255,255,.06)"></rect>
        <rect x="794" y="298" width="40" height="14" fill="#e6c54a" opacity=".85"></rect>
        <text x="814" y="310" font-family="JetBrains Mono, monospace" font-size="9" fill="#000" text-anchor="middle" font-weight="700">011</text>
        <rect x="910" y="376" width="14" height="34" fill="#0a0a0a" stroke="rgba(255,255,255,.18)"></rect>
        <rect x="804" y="338" width="120" height="84" fill="#f0247a" opacity=".18"></rect>
      
        <rect x="960" y="280" width="160" height="180" fill="#1f1428" stroke="#000" stroke-width="2"></rect>
        <rect x="960" y="280" width="160" height="6" fill="rgba(255,255,255,.06)"></rect>
        <rect x="974" y="298" width="40" height="14" fill="#e6c54a" opacity=".85"></rect>
        <text x="994" y="310" font-family="JetBrains Mono, monospace" font-size="9" fill="#000" text-anchor="middle" font-weight="700">012</text>
        <rect x="1090" y="376" width="14" height="34" fill="#0a0a0a" stroke="rgba(255,255,255,.18)"></rect>
        
      
        <rect x="60" y="480" width="160" height="180" fill="#1f1428" stroke="#000" stroke-width="2"></rect>
        <rect x="60" y="480" width="160" height="6" fill="rgba(255,255,255,.06)"></rect>
        <rect x="74" y="498" width="40" height="14" fill="#e6c54a" opacity=".85"></rect>
        <text x="94" y="510" font-family="JetBrains Mono, monospace" font-size="9" fill="#000" text-anchor="middle" font-weight="700">013</text>
        <rect x="190" y="576" width="14" height="34" fill="#0a0a0a" stroke="rgba(255,255,255,.18)"></rect>
        
      
        <rect x="240" y="480" width="160" height="180" fill="#1f1428" stroke="#000" stroke-width="2"></rect>
        <rect x="240" y="480" width="160" height="6" fill="rgba(255,255,255,.06)"></rect>
        <rect x="254" y="498" width="40" height="14" fill="#e6c54a" opacity=".85"></rect>
        <text x="274" y="510" font-family="JetBrains Mono, monospace" font-size="9" fill="#000" text-anchor="middle" font-weight="700">014</text>
        <rect x="370" y="576" width="14" height="34" fill="#0a0a0a" stroke="rgba(255,255,255,.18)"></rect>
        
      
        <rect x="420" y="480" width="160" height="180" fill="#1f1428" stroke="#000" stroke-width="2"></rect>
        <rect x="420" y="480" width="160" height="6" fill="rgba(255,255,255,.06)"></rect>
        <rect x="434" y="498" width="40" height="14" fill="#e6c54a" opacity=".85"></rect>
        <text x="454" y="510" font-family="JetBrains Mono, monospace" font-size="9" fill="#000" text-anchor="middle" font-weight="700">015</text>
        <rect x="550" y="576" width="14" height="34" fill="#0a0a0a" stroke="rgba(255,255,255,.18)"></rect>
        
      
        <rect x="600" y="480" width="160" height="180" fill="#1f1428" stroke="#000" stroke-width="2"></rect>
        <rect x="600" y="480" width="160" height="6" fill="rgba(255,255,255,.06)"></rect>
        <rect x="614" y="498" width="40" height="14" fill="#e6c54a" opacity=".85"></rect>
        <text x="634" y="510" font-family="JetBrains Mono, monospace" font-size="9" fill="#000" text-anchor="middle" font-weight="700">016</text>
        <rect x="730" y="576" width="14" height="34" fill="#0a0a0a" stroke="rgba(255,255,255,.18)"></rect>
        <rect x="624" y="538" width="120" height="84" fill="#f0247a" opacity=".18"></rect>
      
        <rect x="780" y="480" width="160" height="180" fill="#1f1428" stroke="#000" stroke-width="2"></rect>
        <rect x="780" y="480" width="160" height="6" fill="rgba(255,255,255,.06)"></rect>
        <rect x="794" y="498" width="40" height="14" fill="#e6c54a" opacity=".85"></rect>
        <text x="814" y="510" font-family="JetBrains Mono, monospace" font-size="9" fill="#000" text-anchor="middle" font-weight="700">017</text>
        <rect x="910" y="576" width="14" height="34" fill="#0a0a0a" stroke="rgba(255,255,255,.18)"></rect>
        
      
        <rect x="960" y="480" width="160" height="180" fill="#1f1428" stroke="#000" stroke-width="2"></rect>
        <rect x="960" y="480" width="160" height="6" fill="rgba(255,255,255,.06)"></rect>
        <rect x="974" y="498" width="40" height="14" fill="#e6c54a" opacity=".85"></rect>
        <text x="994" y="510" font-family="JetBrains Mono, monospace" font-size="9" fill="#000" text-anchor="middle" font-weight="700">018</text>
        <rect x="1090" y="576" width="14" height="34" fill="#0a0a0a" stroke="rgba(255,255,255,.18)"></rect>
        
      
        <rect x="60" y="680" width="160" height="180" fill="#1f1428" stroke="#000" stroke-width="2"></rect>
        <rect x="60" y="680" width="160" height="6" fill="rgba(255,255,255,.06)"></rect>
        <rect x="74" y="698" width="40" height="14" fill="#e6c54a" opacity=".85"></rect>
        <text x="94" y="710" font-family="JetBrains Mono, monospace" font-size="9" fill="#000" text-anchor="middle" font-weight="700">019</text>
        <rect x="190" y="776" width="14" height="34" fill="#0a0a0a" stroke="rgba(255,255,255,.18)"></rect>
        
      
        <rect x="240" y="680" width="160" height="180" fill="#1f1428" stroke="#000" stroke-width="2"></rect>
        <rect x="240" y="680" width="160" height="6" fill="rgba(255,255,255,.06)"></rect>
        <rect x="254" y="698" width="40" height="14" fill="#e6c54a" opacity=".85"></rect>
        <text x="274" y="710" font-family="JetBrains Mono, monospace" font-size="9" fill="#000" text-anchor="middle" font-weight="700">020</text>
        <rect x="370" y="776" width="14" height="34" fill="#0a0a0a" stroke="rgba(255,255,255,.18)"></rect>
        
      
        <rect x="420" y="680" width="160" height="180" fill="#1f1428" stroke="#000" stroke-width="2"></rect>
        <rect x="420" y="680" width="160" height="6" fill="rgba(255,255,255,.06)"></rect>
        <rect x="434" y="698" width="40" height="14" fill="#e6c54a" opacity=".85"></rect>
        <text x="454" y="710" font-family="JetBrains Mono, monospace" font-size="9" fill="#000" text-anchor="middle" font-weight="700">021</text>
        <rect x="550" y="776" width="14" height="34" fill="#0a0a0a" stroke="rgba(255,255,255,.18)"></rect>
        <rect x="444" y="738" width="120" height="84" fill="#f0247a" opacity=".18"></rect>
      
        <rect x="600" y="680" width="160" height="180" fill="#1f1428" stroke="#000" stroke-width="2"></rect>
        <rect x="600" y="680" width="160" height="6" fill="rgba(255,255,255,.06)"></rect>
        <rect x="614" y="698" width="40" height="14" fill="#e6c54a" opacity=".85"></rect>
        <text x="634" y="710" font-family="JetBrains Mono, monospace" font-size="9" fill="#000" text-anchor="middle" font-weight="700">022</text>
        <rect x="730" y="776" width="14" height="34" fill="#0a0a0a" stroke="rgba(255,255,255,.18)"></rect>
        
      
        <rect x="780" y="680" width="160" height="180" fill="#1f1428" stroke="#000" stroke-width="2"></rect>
        <rect x="780" y="680" width="160" height="6" fill="rgba(255,255,255,.06)"></rect>
        <rect x="794" y="698" width="40" height="14" fill="#e6c54a" opacity=".85"></rect>
        <text x="814" y="710" font-family="JetBrains Mono, monospace" font-size="9" fill="#000" text-anchor="middle" font-weight="700">023</text>
        <rect x="910" y="776" width="14" height="34" fill="#0a0a0a" stroke="rgba(255,255,255,.18)"></rect>
        
      
        <rect x="960" y="680" width="160" height="180" fill="#1f1428" stroke="#000" stroke-width="2"></rect>
        <rect x="960" y="680" width="160" height="6" fill="rgba(255,255,255,.06)"></rect>
        <rect x="974" y="698" width="40" height="14" fill="#e6c54a" opacity=".85"></rect>
        <text x="994" y="710" font-family="JetBrains Mono, monospace" font-size="9" fill="#000" text-anchor="middle" font-weight="700">024</text>
        <rect x="1090" y="776" width="14" height="34" fill="#0a0a0a" stroke="rgba(255,255,255,.18)"></rect>
        
      
</g>

<g transform="translate(0 460)">
  <rect x="0" y="0" width="1200" height="36" fill="#e6c54a" opacity=".95"></rect>
  <text x="600" y="24" text-anchor="middle" font-family="JetBrains Mono, monospace" font-size="22" fill="#000" letter-spacing="14" font-weight="700">⚠ STUPÉFIANTS · LISTE I · CADENAS II ⚠</text>
</g>
<rect width="1200" height="900" filter="url(#grain-d)"></rect>
<rect x="40" y="810" width="380" height="50" fill="#000" opacity=".75"></rect>
<text x="56" y="842" font-family="JetBrains Mono, monospace" font-size="14" fill="#fff" letter-spacing="3">BACKSTAGE · RÉSERVE DES STUPS</text>
</svg>