
<svg xmlns="http://www.w3.org/2000/svg" viewBox="0 0 1200 900">

  <defs>
    <linearGradient id="bg-f" x1="0%" y1="0%" x2="0%" y2="100%">
      <stop offset="0%" stop-color="#1c0820"></stop>
      <stop offset="100%" stop-color="#0a0410"></stop>
    </linearGradient>
    <radialGradient id="spot-f" cx="50%" cy="35%" r="55%">
      <stop offset="0%" stop-color="#fff" stop-opacity=".5"></stop>
      <stop offset="60%" stop-color="#fff" stop-opacity=".06"></stop>
      <stop offset="100%" stop-color="#fff" stop-opacity="0"></stop>
    </radialGradient>
    <filter id="grain-f">
      <feTurbulence type="fractalNoise" baseFrequency="0.85" numOctaves="2" seed="102"></feTurbulence>
      <feColorMatrix values="0 0 0 0 0  0 0 0 0 0  0 0 0 0 0  0 0 0 .08 0"></feColorMatrix>
    </filter>
    <filter id="smoke-f">
      <feTurbulence type="fractalNoise" baseFrequency="0.012 0.02" numOctaves="2" seed="1"></feTurbulence>
      <feColorMatrix values="0 0 0 0 1  0 0 0 0 1  0 0 0 0 1  0 0 0 .14 0"></feColorMatrix>
    </filter>
  </defs>

<rect width="1200" height="900" fill="url(#bg-f)"></rect>

<radialGradient id="halo-f" cx="50%" cy="50%" r="60%">
  <stop offset="0%" stop-color="#f0247a" stop-opacity=".4"></stop>
  <stop offset="100%" stop-color="#f0247a" stop-opacity="0"></stop>
</radialGradient>
<rect width="1200" height="900" fill="url(#halo-f)"></rect>

<g transform="translate(380 450)">
  <circle r="320" fill="#0a0a0a" stroke="#1a1a1a" stroke-width="2"></circle>
  <circle r="300" fill="none" stroke="rgba(255,255,255,.06)" stroke-width="1"></circle><circle r="280" fill="none" stroke="rgba(255,255,255,.06)" stroke-width="1"></circle><circle r="260" fill="none" stroke="rgba(255,255,255,.06)" stroke-width="1"></circle><circle r="240" fill="none" stroke="rgba(255,255,255,.06)" stroke-width="1"></circle><circle r="220" fill="none" stroke="rgba(255,255,255,.06)" stroke-width="1"></circle><circle r="200" fill="none" stroke="rgba(255,255,255,.06)" stroke-width="1"></circle><circle r="180" fill="none" stroke="rgba(255,255,255,.06)" stroke-width="1"></circle><circle r="160" fill="none" stroke="rgba(255,255,255,.06)" stroke-width="1"></circle><circle r="140" fill="none" stroke="rgba(255,255,255,.06)" stroke-width="1"></circle><circle r="120" fill="none" stroke="rgba(255,255,255,.06)" stroke-width="1"></circle>
  <path d="M 0 0 L 0 -320 A 320 320 0 0 1 280 -160 Z" fill="rgba(255,255,255,.05)"></path>
  <circle r="110" fill="#f0247a"></circle>
  <text x="0" y="-30" text-anchor="middle" font-family="Metal Mania, serif" font-size="48" fill="#fff">PMP</text>
  <text x="0" y="20" text-anchor="middle" font-family="JetBrains Mono, monospace" font-size="11" fill="#fff" letter-spacing="4">QSP 666 · A-SIDE</text>
  <circle r="4" fill="#000"></circle>
</g>

<g transform="translate(860 410) rotate(8)">
  <ellipse cx="0" cy="-160" rx="56" ry="80" fill="#f6f1e6"></ellipse>
  <ellipse cx="0" cy="-160" rx="44" ry="68" fill="#1a1a1a"></ellipse>
  <line x1="-40" y1="-220" x2="-40" y2="-100" stroke="#f6f1e6" stroke-width="1.5"></line><line x1="-31" y1="-220" x2="-31" y2="-100" stroke="#f6f1e6" stroke-width="1.5"></line><line x1="-22" y1="-220" x2="-22" y2="-100" stroke="#f6f1e6" stroke-width="1.5"></line><line x1="-13" y1="-220" x2="-13" y2="-100" stroke="#f6f1e6" stroke-width="1.5"></line><line x1="-4" y1="-220" x2="-4" y2="-100" stroke="#f6f1e6" stroke-width="1.5"></line><line x1="5" y1="-220" x2="5" y2="-100" stroke="#f6f1e6" stroke-width="1.5"></line><line x1="14" y1="-220" x2="14" y2="-100" stroke="#f6f1e6" stroke-width="1.5"></line><line x1="23" y1="-220" x2="23" y2="-100" stroke="#f6f1e6" stroke-width="1.5"></line><line x1="32" y1="-220" x2="32" y2="-100" stroke="#f6f1e6" stroke-width="1.5"></line><line x1="41" y1="-220" x2="41" y2="-100" stroke="#f6f1e6" stroke-width="1.5"></line>
  <line x1="-44" y1="-220" x2="44" y2="-220" stroke="#f6f1e6" stroke-width="1.5"></line><line x1="-44" y1="-205" x2="44" y2="-205" stroke="#f6f1e6" stroke-width="1.5"></line><line x1="-44" y1="-190" x2="44" y2="-190" stroke="#f6f1e6" stroke-width="1.5"></line><line x1="-44" y1="-175" x2="44" y2="-175" stroke="#f6f1e6" stroke-width="1.5"></line><line x1="-44" y1="-160" x2="44" y2="-160" stroke="#f6f1e6" stroke-width="1.5"></line><line x1="-44" y1="-145" x2="44" y2="-145" stroke="#f6f1e6" stroke-width="1.5"></line><line x1="-44" y1="-130" x2="44" y2="-130" stroke="#f6f1e6" stroke-width="1.5"></line><line x1="-44" y1="-115" x2="44" y2="-115" stroke="#f6f1e6" stroke-width="1.5"></line>
  <rect x="-18" y="-80" width="36" height="36" rx="4" fill="#f6f1e6"></rect>
  <rect x="-12" y="-44" width="24" height="240" fill="#1a1a1a"></rect>
  <circle cx="0" cy="200" r="22" fill="#1a1a1a"></circle>
</g>
<rect width="1200" height="900" filter="url(#grain-f)"></rect>
<rect x="40" y="810" width="380" height="50" fill="#000" opacity=".75"></rect>
<text x="56" y="842" font-family="JetBrains Mono, monospace" font-size="14" fill="#fff" letter-spacing="3">ENCORE · « QSP 666 » A CAPPELLA</text>
</svg>