
<svg xmlns="http://www.w3.org/2000/svg" viewBox="0 0 1200 900">

  <defs>
    <linearGradient id="bg-e" x1="0%" y1="0%" x2="0%" y2="100%">
      <stop offset="0%" stop-color="#06030f"></stop>
      <stop offset="100%" stop-color="#2a103f"></stop>
    </linearGradient>
    <radialGradient id="spot-e" cx="50%" cy="35%" r="55%">
      <stop offset="0%" stop-color="#fff" stop-opacity=".5"></stop>
      <stop offset="60%" stop-color="#fff" stop-opacity=".06"></stop>
      <stop offset="100%" stop-color="#fff" stop-opacity="0"></stop>
    </radialGradient>
    <filter id="grain-e">
      <feTurbulence type="fractalNoise" baseFrequency="0.85" numOctaves="2" seed="101"></feTurbulence>
      <feColorMatrix values="0 0 0 0 0  0 0 0 0 0  0 0 0 0 0  0 0 0 .08 0"></feColorMatrix>
    </filter>
    <filter id="smoke-e">
      <feTurbulence type="fractalNoise" baseFrequency="0.012 0.02" numOctaves="2" seed="1"></feTurbulence>
      <feColorMatrix values="0 0 0 0 1  0 0 0 0 1  0 0 0 0 1  0 0 0 .14 0"></feColorMatrix>
    </filter>
  </defs>

<rect width="1200" height="900" fill="url(#bg-e)"></rect>

<ellipse cx="600" cy="-60" rx="700" ry="500" fill="#e6c54a" opacity=".25"></ellipse>
<ellipse cx="200" cy="-100" rx="500" ry="400" fill="#f0247a" opacity=".25"></ellipse>
<ellipse cx="1000" cy="-100" rx="500" ry="400" fill="#f4b6c8" opacity=".22"></ellipse>

<g>
  
      <g transform="translate(30 630)">
        <rect x="0" y="20" width="22" height="110" fill="#f6f1e6" opacity=".88"></rect>
        <circle cx="11" cy="14" r="11" fill="#f6f1e6" opacity=".88"></circle>
        <ellipse cx="11" cy="6" rx="13" ry="6" fill="#f4b6c8" opacity=".92"></ellipse>
        
          <rect x="3" y="20" width="5" height="36" fill="#f6f1e6" opacity=".88" transform="rotate(-20 5 38)"></rect>
          <rect x="14" y="20" width="5" height="36" fill="#f6f1e6" opacity=".88" transform="rotate(20 16 38)"></rect>
        
      </g>
    
      <g transform="translate(57.36588393923159 653)">
        <rect x="0" y="20" width="22" height="117" fill="#f6f1e6" opacity=".88"></rect>
        <circle cx="11" cy="14" r="11" fill="#f6f1e6" opacity=".88"></circle>
        
        
          <rect x="-2" y="28" width="5" height="24" fill="#f6f1e6" opacity=".88"></rect>
          <rect x="19" y="28" width="5" height="24" fill="#f6f1e6" opacity=".88"></rect>
        
      </g>
    
      <g transform="translate(81.63718970730272 676)">
        <rect x="0" y="20" width="22" height="124" fill="#f6f1e6" opacity=".88"></rect>
        <circle cx="11" cy="14" r="11" fill="#f6f1e6" opacity=".88"></circle>
        
        
          <rect x="3" y="20" width="5" height="36" fill="#f6f1e6" opacity=".88" transform="rotate(-20 5 38)"></rect>
          <rect x="14" y="20" width="5" height="36" fill="#f6f1e6" opacity=".88" transform="rotate(20 16 38)"></rect>
        
      </g>
    
      <g transform="translate(102.56448003223947 699)">
        <rect x="0" y="20" width="22" height="131" fill="#f6f1e6" opacity=".88"></rect>
        <circle cx="11" cy="14" r="11" fill="#f6f1e6" opacity=".88"></circle>
        <ellipse cx="11" cy="6" rx="13" ry="6" fill="#f4b6c8" opacity=".92"></ellipse>
        
          <rect x="-2" y="28" width="5" height="24" fill="#f6f1e6" opacity=".88"></rect>
          <rect x="19" y="28" width="5" height="24" fill="#f6f1e6" opacity=".88"></rect>
        
      </g>
    
      <g transform="translate(122.9727900187683 602)">
        <rect x="0" y="20" width="22" height="138" fill="#f6f1e6" opacity=".88"></rect>
        <circle cx="11" cy="14" r="11" fill="#f6f1e6" opacity=".88"></circle>
        
        
          <rect x="3" y="20" width="5" height="36" fill="#f6f1e6" opacity=".88" transform="rotate(-20 5 38)"></rect>
          <rect x="14" y="20" width="5" height="36" fill="#f6f1e6" opacity=".88" transform="rotate(20 16 38)"></rect>
        
      </g>
    
      <g transform="translate(146.16430290134744 625)">
        <rect x="0" y="20" width="22" height="145" fill="#f6f1e6" opacity=".88"></rect>
        <circle cx="11" cy="14" r="11" fill="#f6f1e6" opacity=".88"></circle>
        
        
          <rect x="-2" y="28" width="5" height="24" fill="#f6f1e6" opacity=".88"></rect>
          <rect x="19" y="28" width="5" height="24" fill="#f6f1e6" opacity=".88"></rect>
        
      </g>
    
      <g transform="translate(172.88233800720428 688)">
        <rect x="0" y="20" width="22" height="112" fill="#f6f1e6" opacity=".88"></rect>
        <circle cx="11" cy="14" r="11" fill="#f6f1e6" opacity=".88"></circle>
        <ellipse cx="11" cy="6" rx="13" ry="6" fill="#f4b6c8" opacity=".92"></ellipse>
        
          <rect x="3" y="20" width="5" height="36" fill="#f6f1e6" opacity=".88" transform="rotate(-20 5 38)"></rect>
          <rect x="14" y="20" width="5" height="36" fill="#f6f1e6" opacity=".88" transform="rotate(20 16 38)"></rect>
        
      </g>
    
      <g transform="translate(200.62794639487515 711)">
        <rect x="0" y="20" width="22" height="119" fill="#f6f1e6" opacity=".88"></rect>
        <circle cx="11" cy="14" r="11" fill="#f6f1e6" opacity=".88"></circle>
        
        
          <rect x="-2" y="28" width="5" height="24" fill="#f6f1e6" opacity=".88"></rect>
          <rect x="19" y="28" width="5" height="24" fill="#f6f1e6" opacity=".88"></rect>
        
      </g>
    
      <g transform="translate(225.95743298649353 614)">
        <rect x="0" y="20" width="22" height="126" fill="#f6f1e6" opacity=".88"></rect>
        <circle cx="11" cy="14" r="11" fill="#f6f1e6" opacity=".88"></circle>
        
        
          <rect x="3" y="20" width="5" height="36" fill="#f6f1e6" opacity=".88" transform="rotate(-20 5 38)"></rect>
          <rect x="14" y="20" width="5" height="36" fill="#f6f1e6" opacity=".88" transform="rotate(20 16 38)"></rect>
        
      </g>
    
      <g transform="translate(247.64847394096702 637)">
        <rect x="0" y="20" width="22" height="133" fill="#f6f1e6" opacity=".88"></rect>
        <circle cx="11" cy="14" r="11" fill="#f6f1e6" opacity=".88"></circle>
        <ellipse cx="11" cy="6" rx="13" ry="6" fill="#f4b6c8" opacity=".92"></ellipse>
        
          <rect x="-2" y="28" width="5" height="24" fill="#f6f1e6" opacity=".88"></rect>
          <rect x="19" y="28" width="5" height="24" fill="#f6f1e6" opacity=".88"></rect>
        
      </g>
    
      <g transform="translate(267.8239155564425 660)">
        <rect x="0" y="20" width="22" height="140" fill="#f6f1e6" opacity=".88"></rect>
        <circle cx="11" cy="14" r="11" fill="#f6f1e6" opacity=".88"></circle>
        
        
          <rect x="3" y="20" width="5" height="36" fill="#f6f1e6" opacity=".88" transform="rotate(-20 5 38)"></rect>
          <rect x="14" y="20" width="5" height="36" fill="#f6f1e6" opacity=".88" transform="rotate(20 16 38)"></rect>
        
      </g>
    
      <g transform="translate(290.0000391737972 683)">
        <rect x="0" y="20" width="22" height="147" fill="#f6f1e6" opacity=".88"></rect>
        <circle cx="11" cy="14" r="11" fill="#f6f1e6" opacity=".88"></circle>
        
        
          <rect x="-2" y="28" width="5" height="24" fill="#f6f1e6" opacity=".88"></rect>
          <rect x="19" y="28" width="5" height="24" fill="#f6f1e6" opacity=".88"></rect>
        
      </g>
    
      <g transform="translate(315.8537083279983 626)">
        <rect x="0" y="20" width="22" height="114" fill="#f6f1e6" opacity=".88"></rect>
        <circle cx="11" cy="14" r="11" fill="#f6f1e6" opacity=".88"></circle>
        <ellipse cx="11" cy="6" rx="13" ry="6" fill="#f4b6c8" opacity=".92"></ellipse>
        
          <rect x="3" y="20" width="5" height="36" fill="#f6f1e6" opacity=".88" transform="rotate(-20 5 38)"></rect>
          <rect x="14" y="20" width="5" height="36" fill="#f6f1e6" opacity=".88" transform="rotate(20 16 38)"></rect>
        
      </g>
    
      <g transform="translate(343.68066814730656 649)">
        <rect x="0" y="20" width="22" height="121" fill="#f6f1e6" opacity=".88"></rect>
        <circle cx="11" cy="14" r="11" fill="#f6f1e6" opacity=".88"></circle>
        
        
          <rect x="-2" y="28" width="5" height="24" fill="#f6f1e6" opacity=".88"></rect>
          <rect x="19" y="28" width="5" height="24" fill="#f6f1e6" opacity=".88"></rect>
        
      </g>
    
      <g transform="translate(369.9624294227795 672)">
        <rect x="0" y="20" width="22" height="128" fill="#f6f1e6" opacity=".88"></rect>
        <circle cx="11" cy="14" r="11" fill="#f6f1e6" opacity=".88"></circle>
        
        
          <rect x="3" y="20" width="5" height="36" fill="#f6f1e6" opacity=".88" transform="rotate(-20 5 38)"></rect>
          <rect x="14" y="20" width="5" height="36" fill="#f6f1e6" opacity=".88" transform="rotate(20 16 38)"></rect>
        
      </g>
    
      <g transform="translate(392.6011513606285 695)">
        <rect x="0" y="20" width="22" height="135" fill="#f6f1e6" opacity=".88"></rect>
        <circle cx="11" cy="14" r="11" fill="#f6f1e6" opacity=".88"></circle>
        <ellipse cx="11" cy="6" rx="13" ry="6" fill="#f4b6c8" opacity=".92"></ellipse>
        
          <rect x="-2" y="28" width="5" height="24" fill="#f6f1e6" opacity=".88"></rect>
          <rect x="19" y="28" width="5" height="24" fill="#f6f1e6" opacity=".88"></rect>
        
      </g>
    
      <g transform="translate(412.84838673333974 598)">
        <rect x="0" y="20" width="22" height="142" fill="#f6f1e6" opacity=".88"></rect>
        <circle cx="11" cy="14" r="11" fill="#f6f1e6" opacity=".88"></circle>
        
        
          <rect x="3" y="20" width="5" height="36" fill="#f6f1e6" opacity=".88" transform="rotate(-20 5 38)"></rect>
          <rect x="14" y="20" width="5" height="36" fill="#f6f1e6" opacity=".88" transform="rotate(20 16 38)"></rect>
        
      </g>
    
      <g transform="translate(434.1544100324818 621)">
        <rect x="0" y="20" width="22" height="149" fill="#f6f1e6" opacity=".88"></rect>
        <circle cx="11" cy="14" r="11" fill="#f6f1e6" opacity=".88"></circle>
        
        
          <rect x="-2" y="28" width="5" height="24" fill="#f6f1e6" opacity=".88"></rect>
          <rect x="19" y="28" width="5" height="24" fill="#f6f1e6" opacity=".88"></rect>
        
      </g>
    
      <g transform="translate(458.9960510129133 684)">
        <rect x="0" y="20" width="22" height="116" fill="#f6f1e6" opacity=".88"></rect>
        <circle cx="11" cy="14" r="11" fill="#f6f1e6" opacity=".88"></circle>
        <ellipse cx="11" cy="6" rx="13" ry="6" fill="#f4b6c8" opacity=".92"></ellipse>
        
          <rect x="3" y="20" width="5" height="36" fill="#f6f1e6" opacity=".88" transform="rotate(-20 5 38)"></rect>
          <rect x="14" y="20" width="5" height="36" fill="#f6f1e6" opacity=".88" transform="rotate(20 16 38)"></rect>
        
      </g>
    
      <g transform="translate(486.5995088386518 707)">
        <rect x="0" y="20" width="22" height="123" fill="#f6f1e6" opacity=".88"></rect>
        <circle cx="11" cy="14" r="11" fill="#f6f1e6" opacity=".88"></circle>
        
        
          <rect x="-2" y="28" width="5" height="24" fill="#f6f1e6" opacity=".88"></rect>
          <rect x="19" y="28" width="5" height="24" fill="#f6f1e6" opacity=".88"></rect>
        
      </g>
    
      <g transform="translate(513.6517810029105 610)">
        <rect x="0" y="20" width="22" height="130" fill="#f6f1e6" opacity=".88"></rect>
        <circle cx="11" cy="14" r="11" fill="#f6f1e6" opacity=".88"></circle>
        
        
          <rect x="3" y="20" width="5" height="36" fill="#f6f1e6" opacity=".88" transform="rotate(-20 5 38)"></rect>
          <rect x="14" y="20" width="5" height="36" fill="#f6f1e6" opacity=".88" transform="rotate(20 16 38)"></rect>
        
      </g>
    
      <g transform="translate(537.3466225541442 633)">
        <rect x="0" y="20" width="22" height="137" fill="#f6f1e6" opacity=".88"></rect>
        <circle cx="11" cy="14" r="11" fill="#f6f1e6" opacity=".88"></circle>
        <ellipse cx="11" cy="6" rx="13" ry="6" fill="#f4b6c8" opacity=".92"></ellipse>
        
          <rect x="-2" y="28" width="5" height="24" fill="#f6f1e6" opacity=".88"></rect>
          <rect x="19" y="28" width="5" height="24" fill="#f6f1e6" opacity=".88"></rect>
        
      </g>
    
      <g transform="translate(557.9645947628384 656)">
        <rect x="0" y="20" width="22" height="144" fill="#f6f1e6" opacity=".88"></rect>
        <circle cx="11" cy="14" r="11" fill="#f6f1e6" opacity=".88"></circle>
        
        
          <rect x="3" y="20" width="5" height="36" fill="#f6f1e6" opacity=".88" transform="rotate(-20 5 38)"></rect>
          <rect x="14" y="20" width="5" height="36" fill="#f6f1e6" opacity=".88" transform="rotate(20 16 38)"></rect>
        
      </g>
    
      <g transform="translate(578.6151183832993 719)">
        <rect x="0" y="20" width="22" height="111" fill="#f6f1e6" opacity=".88"></rect>
        <circle cx="11" cy="14" r="11" fill="#f6f1e6" opacity=".88"></circle>
        
        
          <rect x="-2" y="28" width="5" height="24" fill="#f6f1e6" opacity=".88"></rect>
          <rect x="19" y="28" width="5" height="24" fill="#f6f1e6" opacity=".88"></rect>
        
      </g>
    
      <g transform="translate(602.3776865519735 622)">
        <rect x="0" y="20" width="22" height="118" fill="#f6f1e6" opacity=".88"></rect>
        <circle cx="11" cy="14" r="11" fill="#f6f1e6" opacity=".88"></circle>
        <ellipse cx="11" cy="6" rx="13" ry="6" fill="#f4b6c8" opacity=".92"></ellipse>
        
          <rect x="3" y="20" width="5" height="36" fill="#f6f1e6" opacity=".88" transform="rotate(-20 5 38)"></rect>
          <rect x="14" y="20" width="5" height="36" fill="#f6f1e6" opacity=".88" transform="rotate(20 16 38)"></rect>
        
      </g>
    
      <g transform="translate(629.4705929996089 645)">
        <rect x="0" y="20" width="22" height="125" fill="#f6f1e6" opacity=".88"></rect>
        <circle cx="11" cy="14" r="11" fill="#f6f1e6" opacity=".88"></circle>
        
        
          <rect x="-2" y="28" width="5" height="24" fill="#f6f1e6" opacity=".88"></rect>
          <rect x="19" y="28" width="5" height="24" fill="#f6f1e6" opacity=".88"></rect>
        
      </g>
    
      <g transform="translate(657.0502338019185 668)">
        <rect x="0" y="20" width="22" height="132" fill="#f6f1e6" opacity=".88"></rect>
        <circle cx="11" cy="14" r="11" fill="#f6f1e6" opacity=".88"></circle>
        
        
          <rect x="3" y="20" width="5" height="36" fill="#f6f1e6" opacity=".88" transform="rotate(-20 5 38)"></rect>
          <rect x="14" y="20" width="5" height="36" fill="#f6f1e6" opacity=".88" transform="rotate(20 16 38)"></rect>
        
      </g>
    
      <g transform="translate(681.825503713618 691)">
        <rect x="0" y="20" width="22" height="139" fill="#f6f1e6" opacity=".88"></rect>
        <circle cx="11" cy="14" r="11" fill="#f6f1e6" opacity=".88"></circle>
        <ellipse cx="11" cy="6" rx="13" ry="6" fill="#f4b6c8" opacity=".92"></ellipse>
        
          <rect x="-2" y="28" width="5" height="24" fill="#f6f1e6" opacity=".88"></rect>
          <rect x="19" y="28" width="5" height="24" fill="#f6f1e6" opacity=".88"></rect>
        
      </g>
    
      <g transform="translate(703.0836231532314 594)">
        <rect x="0" y="20" width="22" height="146" fill="#f6f1e6" opacity=".88"></rect>
        <circle cx="11" cy="14" r="11" fill="#f6f1e6" opacity=".88"></circle>
        
        
          <rect x="3" y="20" width="5" height="36" fill="#f6f1e6" opacity=".88" transform="rotate(-20 5 38)"></rect>
          <rect x="14" y="20" width="5" height="36" fill="#f6f1e6" opacity=".88" transform="rotate(20 16 38)"></rect>
        
      </g>
    
      <g transform="translate(723.3454644631481 657)">
        <rect x="0" y="20" width="22" height="113" fill="#f6f1e6" opacity=".88"></rect>
        <circle cx="11" cy="14" r="11" fill="#f6f1e6" opacity=".88"></circle>
        
        
          <rect x="-2" y="28" width="5" height="24" fill="#f6f1e6" opacity=".88"></rect>
          <rect x="19" y="28" width="5" height="24" fill="#f6f1e6" opacity=".88"></rect>
        
      </g>
    
      <g transform="translate(746.0478735036286 680)">
        <rect x="0" y="20" width="22" height="120" fill="#f6f1e6" opacity=".88"></rect>
        <circle cx="11" cy="14" r="11" fill="#f6f1e6" opacity=".88"></circle>
        <ellipse cx="11" cy="6" rx="13" ry="6" fill="#f4b6c8" opacity=".92"></ellipse>
        
          <rect x="3" y="20" width="5" height="36" fill="#f6f1e6" opacity=".88" transform="rotate(-20 5 38)"></rect>
          <rect x="14" y="20" width="5" height="36" fill="#f6f1e6" opacity=".88" transform="rotate(20 16 38)"></rect>
        
      </g>
    
      <g transform="translate(772.3838494187078 703)">
        <rect x="0" y="20" width="22" height="127" fill="#f6f1e6" opacity=".88"></rect>
        <circle cx="11" cy="14" r="11" fill="#f6f1e6" opacity=".88"></circle>
        
        
          <rect x="-2" y="28" width="5" height="24" fill="#f6f1e6" opacity=".88"></rect>
          <rect x="19" y="28" width="5" height="24" fill="#f6f1e6" opacity=".88"></rect>
        
      </g>
    
      <g transform="translate(800.2057067249667 606)">
        <rect x="0" y="20" width="22" height="134" fill="#f6f1e6" opacity=".88"></rect>
        <circle cx="11" cy="14" r="11" fill="#f6f1e6" opacity=".88"></circle>
        
        
          <rect x="3" y="20" width="5" height="36" fill="#f6f1e6" opacity=".88" transform="rotate(-20 5 38)"></rect>
          <rect x="14" y="20" width="5" height="36" fill="#f6f1e6" opacity=".88" transform="rotate(20 16 38)"></rect>
        
      </g>
    
      <g transform="translate(825.999647440429 629)">
        <rect x="0" y="20" width="22" height="141" fill="#f6f1e6" opacity=".88"></rect>
        <circle cx="11" cy="14" r="11" fill="#f6f1e6" opacity=".88"></circle>
        <ellipse cx="11" cy="6" rx="13" ry="6" fill="#f4b6c8" opacity=".92"></ellipse>
        
          <rect x="-2" y="28" width="5" height="24" fill="#f6f1e6" opacity=".88"></rect>
          <rect x="19" y="28" width="5" height="24" fill="#f6f1e6" opacity=".88"></rect>
        
      </g>
    
      <g transform="translate(848.1163307444801 652)">
        <rect x="0" y="20" width="22" height="148" fill="#f6f1e6" opacity=".88"></rect>
        <circle cx="11" cy="14" r="11" fill="#f6f1e6" opacity=".88"></circle>
        
        
          <rect x="3" y="20" width="5" height="36" fill="#f6f1e6" opacity=".88" transform="rotate(-20 5 38)"></rect>
          <rect x="14" y="20" width="5" height="36" fill="#f6f1e6" opacity=".88" transform="rotate(20 16 38)"></rect>
        
      </g>
    
      <g transform="translate(868.2872693220154 715)">
        <rect x="0" y="20" width="22" height="115" fill="#f6f1e6" opacity=".88"></rect>
        <circle cx="11" cy="14" r="11" fill="#f6f1e6" opacity=".88"></circle>
        
        
          <rect x="-2" y="28" width="5" height="24" fill="#f6f1e6" opacity=".88"></rect>
          <rect x="19" y="28" width="5" height="24" fill="#f6f1e6" opacity=".88"></rect>
        
      </g>
    
      <g transform="translate(890.0328845862275 618)">
        <rect x="0" y="20" width="22" height="122" fill="#f6f1e6" opacity=".88"></rect>
        <circle cx="11" cy="14" r="11" fill="#f6f1e6" opacity=".88"></circle>
        <ellipse cx="11" cy="6" rx="13" ry="6" fill="#f4b6c8" opacity=".92"></ellipse>
        
          <rect x="3" y="20" width="5" height="36" fill="#f6f1e6" opacity=".88" transform="rotate(-20 5 38)"></rect>
          <rect x="14" y="20" width="5" height="36" fill="#f6f1e6" opacity=".88" transform="rotate(20 16 38)"></rect>
        
      </g>
    
      <g transform="translate(915.425847466572 641)">
        <rect x="0" y="20" width="22" height="129" fill="#f6f1e6" opacity=".88"></rect>
        <circle cx="11" cy="14" r="11" fill="#f6f1e6" opacity=".88"></circle>
        
        
          <rect x="-2" y="28" width="5" height="24" fill="#f6f1e6" opacity=".88"></rect>
          <rect x="19" y="28" width="5" height="24" fill="#f6f1e6" opacity=".88"></rect>
        
      </g>
    
      <g transform="translate(943.1854743148375 664)">
        <rect x="0" y="20" width="22" height="136" fill="#f6f1e6" opacity=".88"></rect>
        <circle cx="11" cy="14" r="11" fill="#f6f1e6" opacity=".88"></circle>
        
        
          <rect x="3" y="20" width="5" height="36" fill="#f6f1e6" opacity=".88" transform="rotate(-20 5 38)"></rect>
          <rect x="14" y="20" width="5" height="36" fill="#f6f1e6" opacity=".88" transform="rotate(20 16 38)"></rect>
        
      </g>
    
      <g transform="translate(969.8551815451364 687)">
        <rect x="0" y="20" width="22" height="143" fill="#f6f1e6" opacity=".88"></rect>
        <circle cx="11" cy="14" r="11" fill="#f6f1e6" opacity=".88"></circle>
        <ellipse cx="11" cy="6" rx="13" ry="6" fill="#f4b6c8" opacity=".92"></ellipse>
        
          <rect x="-2" y="28" width="5" height="24" fill="#f6f1e6" opacity=".88"></rect>
          <rect x="19" y="28" width="5" height="24" fill="#f6f1e6" opacity=".88"></rect>
        
      </g>
    
      <g transform="translate(992.9804526419174 630)">
        <rect x="0" y="20" width="22" height="110" fill="#f6f1e6" opacity=".88"></rect>
        <circle cx="11" cy="14" r="11" fill="#f6f1e6" opacity=".88"></circle>
        
        
          <rect x="3" y="20" width="5" height="36" fill="#f6f1e6" opacity=".88" transform="rotate(-20 5 38)"></rect>
          <rect x="14" y="20" width="5" height="36" fill="#f6f1e6" opacity=".88" transform="rotate(20 16 38)"></rect>
        
      </g>
    
      <g transform="translate(1013.3655093247812 653)">
        <rect x="0" y="20" width="22" height="117" fill="#f6f1e6" opacity=".88"></rect>
        <circle cx="11" cy="14" r="11" fill="#f6f1e6" opacity=".88"></circle>
        
        
          <rect x="-2" y="28" width="5" height="24" fill="#f6f1e6" opacity=".88"></rect>
          <rect x="19" y="28" width="5" height="24" fill="#f6f1e6" opacity=".88"></rect>
        
      </g>
    
      <g transform="translate(1034.3339138083375 676)">
        <rect x="0" y="20" width="22" height="124" fill="#f6f1e6" opacity=".88"></rect>
        <circle cx="11" cy="14" r="11" fill="#f6f1e6" opacity=".88"></circle>
        <ellipse cx="11" cy="6" rx="13" ry="6" fill="#f4b6c8" opacity=".92"></ellipse>
        
          <rect x="3" y="20" width="5" height="36" fill="#f6f1e6" opacity=".88" transform="rotate(-20 5 38)"></rect>
          <rect x="14" y="20" width="5" height="36" fill="#f6f1e6" opacity=".88" transform="rotate(20 16 38)"></rect>
        
      </g>
    
      <g transform="translate(1058.6729010294855 699)">
        <rect x="0" y="20" width="22" height="131" fill="#f6f1e6" opacity=".88"></rect>
        <circle cx="11" cy="14" r="11" fill="#f6f1e6" opacity=".88"></circle>
        
        
          <rect x="-2" y="28" width="5" height="24" fill="#f6f1e6" opacity=".88"></rect>
          <rect x="19" y="28" width="5" height="24" fill="#f6f1e6" opacity=".88"></rect>
        
      </g>
    
      <g transform="translate(1086.0708077004217 602)">
        <rect x="0" y="20" width="22" height="138" fill="#f6f1e6" opacity=".88"></rect>
        <circle cx="11" cy="14" r="11" fill="#f6f1e6" opacity=".88"></circle>
        
        
          <rect x="3" y="20" width="5" height="36" fill="#f6f1e6" opacity=".88" transform="rotate(-20 5 38)"></rect>
          <rect x="14" y="20" width="5" height="36" fill="#f6f1e6" opacity=".88" transform="rotate(20 16 38)"></rect>
        
      </g>
    
      <g transform="translate(1113.4036140981366 625)">
        <rect x="0" y="20" width="22" height="145" fill="#f6f1e6" opacity=".88"></rect>
        <circle cx="11" cy="14" r="11" fill="#f6f1e6" opacity=".88"></circle>
        <ellipse cx="11" cy="6" rx="13" ry="6" fill="#f4b6c8" opacity=".92"></ellipse>
        
          <rect x="-2" y="28" width="5" height="24" fill="#f6f1e6" opacity=".88"></rect>
          <rect x="19" y="28" width="5" height="24" fill="#f6f1e6" opacity=".88"></rect>
        
      </g>
    
      <g transform="translate(1137.6071533905952 688)">
        <rect x="0" y="20" width="22" height="112" fill="#f6f1e6" opacity=".88"></rect>
        <circle cx="11" cy="14" r="11" fill="#f6f1e6" opacity=".88"></circle>
        
        
          <rect x="3" y="20" width="5" height="36" fill="#f6f1e6" opacity=".88" transform="rotate(-20 5 38)"></rect>
          <rect x="14" y="20" width="5" height="36" fill="#f6f1e6" opacity=".88" transform="rotate(20 16 38)"></rect>
        
      </g>
    
      <g transform="translate(1158.4942924909808 711)">
        <rect x="0" y="20" width="22" height="119" fill="#f6f1e6" opacity=".88"></rect>
        <circle cx="11" cy="14" r="11" fill="#f6f1e6" opacity=".88"></circle>
        
        
          <rect x="-2" y="28" width="5" height="24" fill="#f6f1e6" opacity=".88"></rect>
          <rect x="19" y="28" width="5" height="24" fill="#f6f1e6" opacity=".88"></rect>
        
      </g>
    
      <g transform="translate(1178.9269813547053 614)">
        <rect x="0" y="20" width="22" height="126" fill="#f6f1e6" opacity=".88"></rect>
        <circle cx="11" cy="14" r="11" fill="#f6f1e6" opacity=".88"></circle>
        <ellipse cx="11" cy="6" rx="13" ry="6" fill="#f4b6c8" opacity=".92"></ellipse>
        
          <rect x="3" y="20" width="5" height="36" fill="#f6f1e6" opacity=".88" transform="rotate(-20 5 38)"></rect>
          <rect x="14" y="20" width="5" height="36" fill="#f6f1e6" opacity=".88" transform="rotate(20 16 38)"></rect>
        
      </g>
    
      <g transform="translate(1202.184989388962 637)">
        <rect x="0" y="20" width="22" height="133" fill="#f6f1e6" opacity=".88"></rect>
        <circle cx="11" cy="14" r="11" fill="#f6f1e6" opacity=".88"></circle>
        
        
          <rect x="-2" y="28" width="5" height="24" fill="#f6f1e6" opacity=".88"></rect>
          <rect x="19" y="28" width="5" height="24" fill="#f6f1e6" opacity=".88"></rect>
        
      </g>
    
</g>

<g>
  
      <g transform="translate(80 200) rotate(-30)">
        <rect x="-20" y="-8" width="40" height="16" rx="8" fill="#f0247a"></rect>
        <rect x="-20" y="-8" width="20" height="16" rx="8" fill="#fff" opacity=".45"></rect>
      </g>
    
      <g transform="translate(158 257.8134911250316) rotate(-7)">
        <rect x="-20" y="-8" width="40" height="16" rx="8" fill="#f47a2e"></rect>
        <rect x="-20" y="-8" width="20" height="16" rx="8" fill="#fff" opacity=".45"></rect>
      </g>
    
      <g transform="translate(236 230.93008230928785) rotate(16)">
        <rect x="-20" y="-8" width="40" height="16" rx="8" fill="#e6c54a"></rect>
        <rect x="-20" y="-8" width="20" height="16" rx="8" fill="#fff" opacity=".45"></rect>
      </g>
    
      <g transform="translate(314 158.73403044896156) rotate(-21)">
        <rect x="-20" y="-8" width="40" height="16" rx="8" fill="#f4b6c8"></rect>
        <rect x="-20" y="-8" width="20" height="16" rx="8" fill="#fff" opacity=".45"></rect>
      </g>
    
      <g transform="translate(392 146.99272065679082) rotate(2)">
        <rect x="-20" y="-8" width="40" height="16" rx="8" fill="#f0247a"></rect>
        <rect x="-20" y="-8" width="20" height="16" rx="8" fill="#fff" opacity=".45"></rect>
      </g>
    
      <g transform="translate(470 212.90719928526892) rotate(25)">
        <rect x="-20" y="-8" width="40" height="16" rx="8" fill="#f47a2e"></rect>
        <rect x="-20" y="-8" width="20" height="16" rx="8" fill="#fff" opacity=".45"></rect>
      </g>
    
      <g transform="translate(548 259.9126007224763) rotate(-12)">
        <rect x="-20" y="-8" width="40" height="16" rx="8" fill="#e6c54a"></rect>
        <rect x="-20" y="-8" width="20" height="16" rx="8" fill="#fff" opacity=".45"></rect>
      </g>
    
      <g transform="translate(626 219.14590174096114) rotate(11)">
        <rect x="-20" y="-8" width="40" height="16" rx="8" fill="#f4b6c8"></rect>
        <rect x="-20" y="-8" width="20" height="16" rx="8" fill="#fff" opacity=".45"></rect>
      </g>
    
      <g transform="translate(704 150.33041185486078) rotate(-26)">
        <rect x="-20" y="-8" width="40" height="16" rx="8" fill="#f0247a"></rect>
        <rect x="-20" y="-8" width="20" height="16" rx="8" fill="#fff" opacity=".45"></rect>
      </g>
    
      <g transform="translate(782 154.28098496485808) rotate(-3)">
        <rect x="-20" y="-8" width="40" height="16" rx="8" fill="#f47a2e"></rect>
        <rect x="-20" y="-8" width="20" height="16" rx="8" fill="#fff" opacity=".45"></rect>
      </g>
    
      <g transform="translate(860 225.21002220959846) rotate(20)">
        <rect x="-20" y="-8" width="40" height="16" rx="8" fill="#e6c54a"></rect>
        <rect x="-20" y="-8" width="20" height="16" rx="8" fill="#fff" opacity=".45"></rect>
      </g>
    
      <g transform="translate(938 259.2063178564768) rotate(-17)">
        <rect x="-20" y="-8" width="40" height="16" rx="8" fill="#f4b6c8"></rect>
        <rect x="-20" y="-8" width="20" height="16" rx="8" fill="#fff" opacity=".45"></rect>
      </g>
    
      <g transform="translate(1016 206.46521913796653) rotate(6)">
        <rect x="-20" y="-8" width="40" height="16" rx="8" fill="#f0247a"></rect>
        <rect x="-20" y="-8" width="20" height="16" rx="8" fill="#fff" opacity=".45"></rect>
      </g>
    
      <g transform="translate(1094 144.2525592359378) rotate(29)">
        <rect x="-20" y="-8" width="40" height="16" rx="8" fill="#f47a2e"></rect>
        <rect x="-20" y="-8" width="20" height="16" rx="8" fill="#fff" opacity=".45"></rect>
      </g>
    
</g>
<rect width="1200" height="900" filter="url(#grain-e)"></rect>
<rect x="40" y="810" width="320" height="50" fill="#000" opacity=".75"></rect>
<text x="56" y="842" font-family="JetBrains Mono, monospace" font-size="14" fill="#fff" letter-spacing="3">PIT · PREMIÈRE RANGÉE EN BLOUSE</text>
</svg>